<?xml version="1.0" encoding="utf-8"?>
<!-- Generator: Adobe Illustrator 23.0.2, SVG Export Plug-In . SVG Version: 6.00 Build 0)  -->
<svg version="1.1" id="Layer_1" xmlns="http://www.w3.org/2000/svg" xmlns:xlink="http://www.w3.org/1999/xlink" x="0px" y="0px"
	 viewBox="0 0 1396 382" style="enable-background:new 0 0 1396 382;" xml:space="preserve">
<style type="text/css">
	.st0{fill:#374B5C;}
	.st1{clip-path:url(#SVGID_2_);}
</style>
<g id="Group_229">
	<ellipse id="Ellipse_13" class="st0" cx="1369" cy="342" rx="7" ry="10"/>
	<circle id="Ellipse_14" class="st0" cx="1185.5" cy="214.5" r="9.5"/>
	<g>
		<defs>
			<rect id="SVGID_1_" x="15" y="13" width="1366" height="359"/>
		</defs>
		<clipPath id="SVGID_2_">
			<use xlink:href="#SVGID_1_"  style="overflow:visible;"/>
		</clipPath>
		<g id="Mask_Group_7" transform="translate(0 12)" class="st1">
			<g id="Group_128" transform="translate(0 -124)">
				<g id="Group_109" transform="translate(1575.443 4590.14) rotate(180)">
					<path id="Path_12414" class="st0" d="M671.11,3812.14c7.96,9.67,18.86,10.2,30.25,10.53c9.02,0.26,19.07-3.5,26.67,4.91
						c-46.23,24.91-95.69,27.34-146.48,21.52c-37.49-4.3-74.95-9.27-112.82-8.92c-74.18-7.52-148.66-10.32-223-15.39
						c-7.64-0.52-15.53-0.21-22.48-4.45c-3.11-2.07-3.89-4.8-2.33-8.2H671.11z"/>
					<path id="Path_12415" class="st0" d="M220.92,3812.14c0.03,1.62,0.08,3.24,0.16,4.87c-1.72,2.29-4.06,4.02-6.75,5
						c-4.1,1.28-8.35,2-12.64,2.12c-11.22-0.61-23.28,2.57-32.6-6.95c0.06-1.68,0.08-3.36,0.08-5.03L220.92,3812.14z"/>
					<path id="Path_12416" class="st0" d="M955.85,3874.09c3.41,0.11,6.82,0.23,10.23,0.36c9.66,6.21,21.46-1.24,31.14,4.84
						l-0.05-0.03c23.91,10.91,45.08-8.64,68.49-6.37c6.24,0.61,13.01-2.8,19.26,1.45c22.62,13.94,47.62,17.08,73.34,14.94
						c8.52-0.72,16.76-1.69,25.12,0.35c14.52,5.41,29.06,8.82,44.89,5.34c8.5-1.87,17.14,0.12,22.84,8.18
						c-9.81,23.6-31.36,29.66-53.02,31.44c-13.28,1.1-24.37,4.83-36.57,9.15c-25.63,9.08-52.98,9.17-80.26,9.9
						c0.03,1.12,4.16-0.68,4.49,0.89c4.53,20.92,24.08,25.52,38.17,36.38c10.8,8.32,23.26,19.44,1.38,30.58
						c-1.53,0.78-3.56,2.34-3.4,3.69c4.78,40.29-31.72,32.49-50.09,44.18c8.51-2.96,15.92-3.12,23.16,7.46
						c13.57,19.83,22.93,19.07,36.63-0.15c2.51-3.52,3.84-7.74,6.18-11.32c10.22-15.62,24.02-20.82,38.98-8.19
						c14.65,12.35,27.41,9.17,38.96-1.87c15.42-14.75,29.52-23.3,48.34-4.85c8.49,8.33,17.9,2.28,25.54-3.8
						c14.79-11.78,27.81-9.59,46.55-4.83c27.86,7.1,46.01,19.29,57.5,44.42c2.69,5.89,8.27,6.54,15.31,5.96
						c28.01-2.31,44.21,8.97,55.33,38.69c7.61,20.34,3.33,37.24-18.07,47.18c-3.81,1.77-8.31,4.62-4.96,9.84
						c3,4.67,8.54,7.81,13.09,3.62c7.1-6.53,17.64-11.46,13.77-24.97c-3.46-12.09,5.16-17.38,14.91-20
						c11.53-3.1,15.4,5.41,17.48,14.14c4.52,19,20.58,37.3,2.83,57.97c-3.42,3.97-1.34,15.42,4.19,15.24
						c20.31-0.67,16.85,15.91,21.59,26.48c2.47,5.5,3.46,12.88,7.87,16.08c25.44,18.5,20.27,47.52,26.3,72.7
						c-1.31,2.23-3.23,4.03-5.54,5.2c-40.68,3.66-81.44,6.17-122.3,6.79c-6.75,0.11-14.38-2.24-19.71,2.88
						c-14.58,14-24.18,4.46-33.88-6.17c-8.7-7.97-10.65-19.56-15.24-29.62c-9.37-20.56-5.09-26.16,19.01-26.99
						c-5.37-5.75-11.26-6.85-18.47-3.52c-24.85,11.46-24.89,11.36-34.34-14.22c-0.36,8.41,6.02,16.23,2.99,24.96
						c-2.49,7.16-2.5,16.36-12.1,17.96c-8.87,1.48-14.15-5.04-18.72-11.47c-4.56-6.38-6.64-14.2-5.86-22
						c0.62-7.49,2.99-15.59-5.34-21.59c-7.88,3.46-3.95,10.22-3.78,15.4c0.36,10.91-4.07,20.82-14.29,21.33
						c-12.12,0.6-9.47-11.54-9.97-19.66c-0.21-3.42,0.34-6.89-1.54-10.03c0.52-3.42-5.4-0.78-1.98-1.24
						c1.01-0.13,1.31,0.67,0.93,2.41c-5.66,25.52-13.82,26.5-38.48,4.62c-1.78-1.61-3.45-3.31-5.12-5.02
						c-5.73-5.76-13.38-8.21-20.7-10.09c-13.98-3.6-23.13-10.46-22.22-26.88c-2.15,16.36-16.83,11.47-25.35,16.48
						c4.32,2.28,8.34,3.9,11.58,6.78c6.34,5.61,21.34,7.17,13.69,19.96c-6.04,10.1-16.57,19.12-30.25,13.65
						c-15.52-6.2-40.5-5.53-28.02-35.57c3.37-8.09-6.27-12.5-13.29-10.57c-17.54,4.84-22.58-6.31-28.27-18.78
						c-5.82-12.76-13-24.81-30.02-22.6c5.32,4.14,18.58,0.76,17.12,11.69c-1.39,10.42-12.27,10.6-20.8,9.94
						c-11-0.8-21.59-4.55-30.66-10.83c3.32,10.67,8.95,25.02-4.16,26.89c-15.37,2.19-34.48,16.15-46.87-1.99
						c2.83,7.49,9,12.34,21.65,8.69c17.56-5.08,18.45,5.82,16.71,18.4c12.97-14.92,30.76-22.93,51.08-23.92
						c10.47-0.52,21.05,2.43,23.24,15.71c2.22,13.42-5.65,17.09-17.02,20.75c-8.89,2.87-26.5,0.3-25.06,11.78
						c1.65,13.1,19.48,14,30.5,12.68c20.14-2.4,37.1,5.19,54.87,11.26c8.12,2.78,15.84,7.07,24.82,6.5
						c56.55-3.56,111.57,6.86,166.41,18.47c23.46,4.96,48.37-4.83,70.99,7.45c3,12.34,7.47,20.04,23.58,19.32
						c17.57-0.79,35,6.55,53.07,6.78c5.99,0.08,12.17,2.28,13.77,9.28c1.53,6.72-3.34,10.77-7.28,15.38
						c-12.21,14.28-33.04,5.46-45.92,17.54c8.73-1.47,17.43-8.22,26.19-0.09c-9.37,13.96-23.72,15.13-38.62,15.15
						c-65.01,0.04-130.02,0.12-195.03,0.24c-0.18-13.95,11.16-10.83,18.54-11.44c16.33-1.17,32.73-1.26,49.07-0.27
						c12.15,0.62,21.43-5.41,31.32-10.33c4.64-2.31,4.52-6.94,3.36-11.31c-1.34-5.05-5.44-7.52-9.78-5.44
						c-15.31,7.34-19.84-2.63-23.85-13.94c-2.41-6.81-5.17-7.51-13.8-8.04c-19.71-1.19-40.83,3.76-59.38-6.76
						c-8.72-4.95-14.69-2.38-20,4.59c-5.63,7.62-13.18,13.61-21.88,17.36c-15.11,6.56-29.52,17.57-33.08-11.43
						c-1.33-10.8-11.6-12.33-22.65-10.63c-19.02,2.93-38.71,9.77-56.96-3.63c-3.72-2.73-8.89-2.72-12.01,0.57
						c-11.54,12.15-16.93,12.46-28.62-3.32c-7.39-9.98-29.84-5.64-45.51-4.74c-6.83,0.4-15.21,0.08-14.83-5.41
						c2.15-30.72-28.59-32.76-42.23-49.42c-7.65-9.37-21.98-13.1-25.61-27.23c-1.15-4.45-5.02-6.93-9.84-6.77
						c-4.88,0.15-9.91,3.77-9.05,7.46c6.77,28.58-17.01,45.26-25.43,67.82c-5.38,17.3-22.94,19.17-35.45,27.11
						c-6.42,4.07-13.09-0.84-16.77-7.63c-4.26-7.83-4.04-16.26,3.87-20.32c15.74-8.09,22.49-22.29,29.13-37.03
						c-27.54-8.5-27.3-8.44-21.27-36.82c2.73-12.83-3.02-22.33-15.39-25.74c-13.04-3.59-26.35-7.36-40.01-0.14
						c-7.39,3.91-15.85,7.17-24.51,2.18c-7.15-10.33-9.5-22.33-9.34-34.33c0.18-14.89,4.61-27.86,23.61-26.81
						c13.04,0.72,21.68-5.5,25.9-17.14c4.58-12.69,16.22-19.77,22.6-31.18c11.69-20.89,26-38.75,55.05-24.12
						c-18.43-16.36-28.67-16.96-37.91-1.16c-6.74,11.51-13.36,20.55-27.77,16.98c-8.09-2.01-20.37-33.2-18.91-43.01
						c1.52-10.15,21.56-18.91,3.86-30.32c-19.14-12.34-37.59-29.35-63.72-18.11c-4.75,2.04-9.54,3.98-14.32,5.96
						c-15.64,6.47-23.89,0.36-22.97-15.75c0.68-11.66-0.4-24.29,8.24-35.39c9.31-0.43,13.01,10.06,21.43,11.75
						c8.44,1.68,15.94,3.46,16.46-8.66c0.48-11.25,7.19-18.71,17.09-19.68c13.95-1.36,23.51-2.95,25.52-20.59
						c1.1-9.67,11-4.06,16.37,0.03c12.58,9.56,9.92,22.4,7.35,35.44c-3.42,17.29-16.09,17.92-29.76,17.33
						c16.88,23.84,19.42,24.13,30.46,0.72c4.46-9.46,10.77-9.93,18.87-8.07c11.96,2.73,23.13,7.9,32.1,16
						c13.93,12.57,22.46,30.94,40.32,34.74c-1.51-3.81-3.32-12.65-13.33-12.27c-10.71,0.4-10.75-6.32-10.7-13.4
						c0.24-5.19-1.98-10.19-5.98-13.5c-7.2-6.4-24.14-16.32-16.28-21.08c12.5-7.55,13.16-32.95,35.81-25c7.85,2.76,7.41-4.45,8-9.4
						c0.82-6.79-0.82-13.76,1.73-21.66c-1.2,4.54,0.35-0.49,0.27-0.15c-5.47,22.5-11.83,30.43-20.35,1.39
						c-1.93-6.56,0.22-13.68,1.56-20.47c3.09-15.66-6.76-22.43-19.32-25.53c-16.08-3.97-11.79,10.2-14.57,18.02
						c-3.05,8.61-4.33,21.33-17.33,17.38c-10.31-3.13-15.93-13.07-13.93-24.85c7.22-42.74,33.7-51.64,74.64-41.17
						C881.87,3869.64,919.02,3875.33,955.85,3874.09z"/>
					<path id="Path_12417" class="st0" d="M955.85,3874.09c-11.32,10.37-24.78,1.53-36.98,2.55c-7.34,0.62-15.73,3.5-21.5,2.29
						c-8.18-1.7-16.79-7.3-24.41-13.17c-6.4-4.93-11.29-0.53-20.38,15.47c-11.96-19.78-24.05-26-41.4-22.65
						c-7.4,1.43-12.63,3.84-15.53,11.35c-3.05,7.92-5.89,16.61-11.31,22.79c-11.73,13.41-6.21,22.23,6.6,31.6
						c5.92-9.53,10.62-18.22,7.02-30.43c-2.96-10.01,2.64-14.53,12.93-11.74c10.59,2.87,21.72,3.81,29.65,13.61
						c5.66,7.01,11.01,11.46,4.14,21.72c-6.23,9.3-2.92,20.8-0.68,34.96c10.74-8.75,7.43-20.89,15.82-26.16
						c4.58-2.88,9.51-6.91,13.12-0.98c3.83,6.27-3.68,5.51-6.74,7.11c-7.25,3.79-9.45,9.46-7.19,17.16c1.2,4.1,2.81,8.19,3.24,12.39
						c0.7,6.94,0.92,14.73-6.67,18.01c-7.81,3.38-8.97-6.13-13.76-8.89c-1.4-0.82-3.16-1.01-5.15-1.59
						c-9.02,4.69,3.44,14-4.42,20.18c-6.5,5.11-13.28,0.07-19.96,3.69c8.32,10.8,20.53,15.51,30.76,21.71
						c1.15,7.92-9.22,11.77-4.86,19.55c14.66-9.37,14.57-9.34,19.74,4.64c4.16,11.22,7.77,22.37,1.55,33.86
						c-7.8-0.12-7.13-5.18-6.05-8.95c2.13-7.42-0.21-12.82-7.47-13.18c-12.45-0.61-15.69-8.78-21.86-17.79
						c-11.35-16.58-30.12-24.36-51.28-28.05c-3.17,10.57-0.34,22.27-7.01,32.48c-23.95-0.6-35.32-16.77-44.93-36.65
						c12.94-1.95,28.57,12.11,37.13-5.08c8.97-18.02,5.09-27.64-11.9-39.85c-8.92,11.24,5.45,22.66-0.75,36.46
						c-9.66-10.06-19.58-17.27-33.09-8.98c-6.71,4.12-11.89,7.94-6.01,15.95c6.47,8.8,1,10.77-6.06,14.7
						c-9.47,5.27-15.56-5.89-23.89-2.89c-12.61,4.55-8.38-9.62-13.79-14.6c-3.74,12.46-0.86,23.67-4.44,34.64
						c-3.02,9.26,3.06,11.74,13.45,8.34c13.8-4.52,25.01-16.29,42.41-11.12c21.17,6.3,37.98,19.25,55.74,30.92
						c3.61,2.18,4.76,6.88,2.58,10.49c-0.69,1.13-1.65,2.07-2.81,2.71c-21.25,12.84-17.92,26.39-2.55,41.19
						c1.03,0.98,1.26,3.24,1.16,4.86c-0.82,13.75,7,7.65,12.96,5.69c8.93-2.92,8.92-11.92,12.43-18.5
						c6.88-12.93,15.07-16.26,34.23-11.19c11,2.91,13.95,14.18,17.45,23.37c1.29,3.4-3.29,8.49-8.48,5.79
						c-11.28-5.86-24.15-13.3-35-5.86c-9.07,6.22-13.9,18.81-20,29.06c-7.78,13.08-18.1,25.11-26.34,38.4
						c-4.16,6.72-11.25,9.75-20.03,9.33c-18.97-0.91-25.37,5.98-22.06,24.26c1.67,9.24,5.44,18.1,4.45,27.78
						c14.41,14.92-11,31.3-4.71,35.92c15.7,11.54,12.91,24.38,11.11,38.29c-1.5,11.64-5.98,21.7-20.88,20.19
						c-20.63-2.09-13.97,10.68-11.47,21.17c0.66,7.87,1,15.62-7.42,20.13c-7.17-0.33-11.06-5.71-15.56-10.13
						c-7.38-6.36-8.34-33.39-25.73-7.65c-3.6,5.33-10.57,6.27-16.29,2.82c-7.14-4.3-6.77-11.18-4.02-18.13
						c0.62-1.58,1.84-2.95,2.39-4.52c2.62-7.44,17.79-15.13,4.42-22.24c-12.07-6.42-16.31,8.35-21.86,16.35
						c-4.24,6.11-3.56,12.91-1.65,19.77c1.87,6.74,3.4,14.08-3.77,18.5c-6.74,4.16-13.3,0.56-19.12-3.21
						c-7.12-4.61-12.75-11.54-21.51-13.57c-21.53-15.82-45.32-28.6-64.42-47.73c-4.6-5.64-9.24-11.26-12.83-17.63
						c-18.3-20.32-42.53-29.78-67.87-37.22c-18.18-7.09-27.3-25.92-46.51-33.35c-14.09-5.47-7.79-21.69,0.51-34.85
						c-20.21,0.49-36.73-2.7-52.4,9.07c-17.51,13.15-15.33-12.75-26.12-15.13c-2.28,9.6,7.11,24.53-7.83,27.95
						c-11.32,2.6-11.29-12.93-18.53-18.53c9.18,12.28,14.98,25.76,14.1,41.44c-0.3,5.54-1.91,10.71-7.75,11.92
						c-7.01,1.45-8.86-4.82-9.5-9.54c-2.3-17.01-13.58-27.3-26.15-36.7c-12.84-9.61-13.26-30.07-33.53-34.7
						c-6.62-1.51-10.87-17.38,0.72-26.04c2.16-0.83,3.58-4.29,6.7-1.96c-4.45-3.09-5.74,2.79-8.99,3.17
						c-8.24,3.63-13.73,9.75-17.65,17.85c-3.37,6.98-8.53,10.97-16.26,4.81c-2.51-21.8,0.88-40.83,23.6-50.87
						c47.45-5.02,84.77,21.16,121.43,41.83c11.22-5.03-6.01-27.59,16.9-20.36c2.27,0.72,5.17,2.23,2.85-1.23
						c-8.59-12.83,3.78-32.68-16.11-42.36c-10.64-5.17-5.13-18.75-6.46-28.65c-0.46-3.57-0.63-7.16-0.51-10.76
						c0.02-2.41,0.24-4.79,0.48-7.17c-1.77-22.3,1.24-43.39,15.53-61.65c3.91-4.67,8.29-8.9,12.54-13.25
						c7.29-6.32,13.25-14.99,24.6-14.4c3.29,1,6.28,2.79,8.73,5.21c14.7,13.53,18.67,5.06,19.5-9.57
						c0.23-6.01,0.01-12.04-0.67-18.02c-10.78-21.73-4.89-47.99-19.17-68.95c-4.48-6.59,0.94-10.47,7.04-13.38
						c18.63-8.87,48.99,2.18,57.99,22.23c3.64,8.09,6.12,17.55,16.99,15.21c10.81-2.32,13.81-12.06,13.38-22.06
						c-0.47-11.01-3.62-22.14,3.33-32.33c39.32-0.5,78.09,5.17,117.06,9.27c28.81,3.01,58.16,1.01,87.26,1.14
						c2.51,0.02,6.78-0.1,7.26-1.32c9.72-25.03,31.23-10.46,47.16-14.31c1.65,0.21,3.31,0.26,4.97,0.16
						c4.25,4.71,11.26,0.57,15.63,4.89c65.73,9.77,129.46,30.18,195.82,36.54C948.88,3869.59,952.85,3870.61,955.85,3874.09z"/>
					<path id="Path_12418" class="st0" d="M1561.16,4350.31c-0.27-4.38-1.05-8.76-4.45-11.76c-8.69-7.69-12.55-15.66-5.07-26.77
						c5.28-7.85,3.6-11.79-6.74-16.57c-16.48-7.63-19.25-26.57-24.89-42.34c-1.6-4.48,1.59-10.58-4.34-13.45
						c-8.13-1.58-4.45,11.71-13.1,9.57c-6.82-6.3-0.93-16.73-7.2-23.52c-7.14-7.74-6.3-12.82,4.82-16.17
						c8.03-2.42,9.45-8.96,5.38-16.61c-6.87-12.95-10.3-27.15-13.76-41.23c-23.74,5.36-23.74,5.36-9.81,29.37
						c-6.91,5.62-21.62,3.72-20.53,18.52c0.24,3.3-4.23,4.43-8.12,3.56c-13.49-3.04-24.36-8.5-24.48-24.67
						c5-5.97,12.95-3.37,18.92-7.22c13.06-8.4,18.69-25.33,10.9-38.99c-5.52-9.71-11.72-19.02-18.56-27.85
						c-7.27-9.33-19.45-11.1-30.76-3.57c-5.64,3.75-8.49,3.56-13.07-0.44c-8.04-7.05-11.89-16.65-17.16-25.5
						c-6.47-10.87-10.13-26.02-29.86-18.95c-4.45,1.58-17.41-2.92-20.63-7.2c-13.3-17.76-22.96-2.56-33.69,1.8
						c-2.99,1.22-5.04,4.63-7.75,6.73c-9.95,7.71-18.47,9.46-28.95-1.27c-16.26-16.64-17.65-16.36-33.59,0.84
						c-7.54,8.13-16.63,11.22-26.11,15.31c-10.02,4.31-15.68,1-22.38-5.98c-15.24-15.88-25.84-13.65-34.32,7.87
						c-4.42,11.22-14.68,16.39-21.7,24.78c-5.51,6.58-30.11-2.86-31.01-14.03c-1.62-20.15-10.66-12.05-19.92-8.47
						c-3.13,1.2-6.28,3.44-9.73,1.26c-3.04-1.92-5.23-4.86-4.64-8.52c0.36-2.24,2.92-6.19,3.37-6.05
						c17.13,5.75,28.62-7.34,42.57-12.15c4.67-1.61,10.17-0.8,15.34-1.1c4.29-9.32-15.07-14.18-3.79-24.69
						c6.3-5.88,6.42-20.11,24.85-8.84c-23.69-30.61-25.2-31.38-54.6-30.4c-2.92-9.08,6.11-15.52,6.06-23.38
						c-4.38-8.48-16.59,4.93-18.79-7.45c-0.84-4.71-5.52-9.77-0.3-14.34c5.92-5.19,8.97-0.21,12.01,4.1
						c4.09,5.79,8.99,5.63,15.76,4.29c15.6-3.07,30.59-11.34,47.7-4.32c7.86,3.22,13.39-6.3,20.03-9.81
						c7.53-3.98,14.42-12.02,23.29-7.58c14.25,7.12,24.88-0.41,36.1-6.31c8.97-4.72,17.51-10.28,26.23-15.47
						c4.55-3.59,72.08-30.84,78-31.47c28.67,9.66,57.45,3.27,86.22,0.7c5.31-0.47,10.52-1.42,13.93-5.6
						c19.78-24.23,48.11-23.7,75.19-25.39c20.51-1.28,41.16-0.09,61.76,0c3.14,2.63,7.92,1.72,10.76,5l-0.07-0.03
						c24.19,14.26,50.29,19.88,78.32,18.71c12.5-0.52,25.78-2.22,36.78,6.77c7.79,11.74,6.79,24.32,3.53,37.08
						c-8.86,16.26-24.18,7.8-36.89,9.21c3.96,43.5-2.76,46.87-59.89,27.47c20.62,29.26-5.43,41.67-18.36,57.74
						c-8.36,10.39-20.36,7.35-29.4-2.11c-7.14-7.48-13.47-15.69-24.5-17.94c-7.35-1.5-14.19-11.31-21.15-6.05
						c-8.4,6.35-5.6,17.9-3.43,26.73c3.83,15.56,7.35,30.11,27.59,36.2c30.63,9.21,43.8,45.89,27.42,73.59
						c-10.91,18.45-4.58,20.67,12.8,22.96c25.78,3.39,53.01,50.16,45.72,73.68c-2.54,8.22,7.36,10.48,11.69,15.16
						c27.99,30.22,60.84,55.53,88.07,86.63c1.09,2.43,1.85,4.99,2.27,7.62c2.89,23.3-9.56,33.98-30.88,34.57
						c-25.67,0.73-51.25,3.28-76.55,7.64C1591.76,4367.23,1576.5,4357.84,1561.16,4350.31z"/>
					<path id="Path_12419" class="st0" d="M1711.05,4314.17c-10.52-10.7-27.63-14.58-32.31-31.49c-0.52-1.89-3.81-4.3-5.81-4.29
						c-16.67,0.03-25.19-6.6-26.73-24.53c-0.64-7.44-9.72-15.08-18.06-17.03c-13.03-3.03-14.03-21.28-29.11-21.2
						c-1.61,0.01-1.05-6.37,2.35-8.24c4.44-2.43,9.79,4.87,15.23-2.29c-6.65-7.36-17.83-13.34-12.14-27.15
						c1.97-4.77-4.31-8.85-8.54-11.7c-4.96-3.34-11.43-5.4-13.03-11.77c-2.88-11.51-10.31-13.01-19.56-9.27
						c-12.33,4.99-17.25-3.32-22.24-11.48c-2.86-4.67-2.59-7.51,3-12.11c14.22-11.7,19.04-28.13,10.81-45.17
						c-7.71-15.95-15.73-33.73-39.24-29.72c-3.72,0.64-7.47,0.11-8.77-3.39c-8.03-21.44-17.47-42.66-12.69-66.6
						c1.89-9.41,8.6-10.56,15.55-8.08c10.53,3.75,17.1,17.57,31.93,12c1.22-0.46,6,11.22,10.45,16.05
						c4.81,5.21,9.5,14.76,18.63,8.83c5.62-3.65,17.63-5.41,9.68-18.56c-3.4-5.63,4.06-8.73,9.42-7.47
						c16.3,3.82,13.21-4.72,9.13-13.77c-3.84-8.52-8.38-16.77-8.24-26.5c5.41-5,10.48-1.92,13.42,1.91
						c8.14,10.61,23.02,3.79,32.44,14.54c5.51,6.28,16.17-3.63,17.72-15.18c1.46-10.93-7.93-18.88-6.92-32.08
						c13.76,5.99,28.8,8.45,43.75,7.16c10.33,6.43,19.04-2.05,28.42-3.16c2.59-0.1,7.96,3.65,5.41-4.02
						c2.86-13.04,14.16-19.37,22.11-28.34c14.78,8.16,3.48,19.55,3.21,27.34c27.7,19.52,53.77,36.75,59.71,73.16
						c4.14,25.35,18.97,47.53,29.87,70.75c2.16,4.6,6.05,8.38,6.31,13.87c-7.73,19.25-7.18,41.64-22.03,58.19
						c-7.97-1.54-11.61,3.53-14.6,9.58c-1.7,1.54-4.16,1.89-6.22,0.9c-4.01-1.96-9.73-7.34-10.06,2.26
						c-0.33,10.03,2.12,20.13-0.76,30.17c-3.53,10.36-1.55,23.19-13.27,29.87c-14.71,0.33-8.44-17.29-19.47-21.97
						c-13.21,18.84-25.41,37.66-21.77,62.74c1.34,9.24,0.62,18.76,0.11,28.15c-0.28,5.15-1.47,14.32-3.71,14.1
						C1703.93,4276.2,1723.65,4306,1711.05,4314.17z"/>
					<path id="Path_12420" class="st0" d="M831.52,4345.12c1.16-10.78,6.2-19.73,14.06-26.82c9.88-8.9,13.3-17.96,9.12-31.93
						c-4.8-16.02,4.11-24.69,20.08-24.03c7.96,0.33,13.58,2.71,13.46,11.73c-0.14,11,4.4,17.7,15.69,20.14
						c6.98,1.51,11.62,7.43,15.78,12.81c5.41,7,10.49,12.57,20.68,12.69c11.76,0.13,17.21,6.99,13.13,19.05
						c-1.39,4.09-3.44,8.07-1.75,12.41c1.16,2.97,4.5,8.24,6.58,4.8c8.68-14.28,17.24-4.31,25.39-0.65c4.47,2,7.33,1.25,11.67-0.24
						c21.37-7.33,21.63-6.89,23.57,14.94c0.11,1.34,1.97,2.53,3.03,3.81c5.82-0.32,5.09-5.84,7.38-9.04
						c7.75-10.79,16.4-13.02,25.59-4.12c8.3,8.04,13.32,10.73,26.08,6.29c9.02-3.14,20.95-0.82,32.07-5.22
						c12.09-4.77,25.7,10.18,27.08,27.09c0.13,1.57-1.42,3.23-1.48,4.87c-0.05,1.42,0.92,2.86,2,5.82
						c6.34-7.26,12.09-13.67,22.87-13.68c10.85-0.01,13.55-11.84,19.17-19.01c9.34-11.9,14.25-13.75,24.14-2.79
						c7.2,7.99,11.56,10.71,20.66,3.78c4.92-3.74,11.36-1.83,17.25,0.68c16.93,7.21,17.01,7.04,29.9-3.11
						c4.31,11.02,13.28,19.9,13.68,32.14c4.58,1.11,6.64-1.87,9.38-3.69c15.33-10.12,16.68-9.49,20.35,8.59
						c0.68,3.35,1.66,6.63,2.43,9.97c0.76,3.27,1.43,6.56,2.82,13.01c-17.94-6.15-29.21,10.17-46.19,8.13
						c-16.98-2.04-34.4-0.44-51.63-0.42c-6.02,0.01-12.21-0.41-16.26,5.49c-5.3,5.72-10.48,5.76-15.56-0.3
						c-15.99-11.19-33.13,0.57-49.72-2.38c-9.97-1.77-20.62-1.32-30.75-0.11c-18.12,2.18-29.8-3.36-33.1-22.52
						c-0.72-4.16-3.68-7.68-6.94-10.6c1.19,3.24,0.46-1.55-2.29,0.52c9.15,8.87,7.94,16.36-3.56,21.45
						c-6.15,2.73-11.54-0.93-16.68-4.2c-1.89-1.26-4.17-1.79-6.42-1.5c10.55,9.67,9.65,15.72-5.63,16.55
						c-14.42,0.78-28.77-0.82-43.12-2.25c-8.65-14.31-18.32-25.65-37.77-25.8c-14.49-0.12-23.88-8.04-19.99-25.4
						c3.01-13.42,2.48-24.47-17.29-18.8c-10.74,3.08-15.21-4.94-16.91-14.38c-1.21-6.76-0.78-13.65-1.36-20.46
						c-0.61-7.15-2.47-13.74-10.24-16.16c-7.2-2.25-13.72-0.27-18.59,5.35c-7.26,8.38-14.79,16.55-20.77,26.02
						C846.5,4353.32,839.46,4357.87,831.52,4345.12z"/>
					<path id="Path_12421" class="st0" d="M65.54,4169.19c0.05-13.68,0.83-27.19-3.21-40.82c-3.13-10.58-2.09-21.88,1.46-32.96
						c3.31-10.35,5.81-19.97,19.64-19.33c4.38,0.21,8.16-2.31,11.28-5.48c4.36-4.44,8.26-9.44,5.99-15.91
						c-1.9-5.41-7.35-6.3-12.56-7.24c-18.02-3.25-21.3-9.08-13.45-24.78c2.64-5.27,6.7-9.9,10.52-14.49
						c4.22-5.09,5.94-9.78,2.13-16.2c-10.97-18.44-7.76-37.51-1.5-56.54c16.32,3.65,24.95-7.58,24.08-19.5
						c-0.56-7.78-2.29-20.84-13.16-26.19c-0.73-10.25,1.77-19.27,9.91-26.16c16.04,7.05,24.65,26.86,46.22,25.54
						c4.91-0.3,5.05,9.68,2.98,15.8c-7.13,21.11-5.64,43.63-10.46,65.1c3.09,14.57,15.03,26.16,12.2,43.17
						c-1.31,7.9,9.88,10.36,15.81,14.83c3.24,1.62,6.2,3.75,8.77,6.3c6.25,9.51,19.77,16.56,12.57,30.95
						c-5.19,10.36-10.44,24.56-25.7,10.1c-6.05-5.72-9.25-4.33-14.16,1.88c-21.31,26.96-22.21,48.21-2.11,73.66
						c18.76,23.76,21.57,66.58,6.73,93.46c-7.65,13.87-17.64,16.73-32.2,11.06c-32.02-12.47-38.35-7.33-36.05,27.83
						c0.3,3.43,0.08,6.88-0.68,10.24c-0.81,2.27-2.16,4.31-3.92,5.95c-11.18-2.34-23.28-0.25-33.63-6.86
						c-2.51-4.6-2.47-9.32-0.71-14.13c8.65-8.82,17.19-16.07,20.17-30.51c3.64-17.66,26.22-25.1,31.8-43.89
						c1.01-3.39,14.57,1.29,7.86-9.79c-3.65-6.01-3.85-17.38-14.92-13.65C82.93,4185.47,74.58,4177.18,65.54,4169.19z"/>
					<path id="Path_12422" class="st0" d="M102.13,4401.84c-4.93-7.2-11.71-12.28-18.68-17.38c-10.56-7.72-16.64-17.06-19.04-31.42
						c-2.39-14.39-10.11-28.14-10.42-43.5c1.02-0.65,2.03-1.29,3.05-1.96c13.28,3.4,23.46,9.59,24.22,25.23
						c0.65,13.47,13.57,18.15,20.65,27.63c-24.82-16.04-23.94-38.03-15.61-61.87l0.11-0.03c7.92-4.23,7.09-13.21,10.67-19.8
						c3.11-5.72,6.96-9.85,14.06-8.76c8.17,1.25,8.07,7.57,8.06,13.71c0,4.29-0.5,8.58-0.03,12.85c0.38,3.52,1.55,6.92,5.85,6.81
						c3.83-0.11,5.79-2.16,6.06-6.53c1-16.3,13.64-20.69,26.35-22.79c8.07-1.33,18.13,3.69,11.62,12.97
						c-10.48,14.92,0.5,19.97,8.79,26.51c10.74,8.48,23.56,15.07,20.35,32.38c13.03-1.43,14.33-10.71,17.35-18.34
						c6.84-17.32,21.18-17.14,36.37-16.58c15.63,0.58,29.73,2.13,30.96,22.25c0.27,10.05-4.14,18.88-11.83,23.89
						c-20.71,13.53-11.41,21.94,3.82,30.25c1.42,3.61,1.21,7.65-0.57,11.09c-10.03,12.32-24.15,11.32-37.1,9.2
						c-13.74-2.26-24.58,0.53-34.18,10.06c-13.22-0.02-24.98,11.41-39.01,5.01c-3.87-2.34-4.87-6.14-5.25-10.26
						c-8.96-14.01-20.85-27.12-14.09-45.95C130.81,4405.37,130.13,4405.94,102.13,4401.84z"/>
					<path id="Path_12423" class="st0" d="M521,4407.32c-15.09-3.37-30.09-5.12-45.2,0.33c-5.76,2.07-10.99,4.57-15.65,8.6
						c-26.63,23-61.59,10.56-68.59-24.31c-23.95-2.61-47.89-4.14-71.69,1.46c-1.93-1.46-3.37-3.47-4.15-5.76
						c0.04-18.69,11.99-28.28,28.01-30.59c22.45-3.25,22.54-20.42,27.46-35.79c-18.39,7.81-35.1,17.26-53.64,22.54
						c-2.46,0.54-4.97,0.77-7.49,0.66c-2.53-0.29-5-0.96-7.33-1.98c-5.47-3.25-10.26-7.54-14.08-12.63
						c-7.78-27.45-21.13-48.79-50.74-58.92c-12.5-4.28-24.54-15.82-24.16-32.99c3.58-5.76,11.09-8.12,12.93-15.56
						c1.59-6.45,2.25-14.66,11.97-13.72c8.61,0.83,13.22,7.2,16.71,14.42c1.5,3.11-0.43-0.77,0.88,2.42
						c13.01,31.53,13.01,31.53,35.17,4.01c13.62,36.78,48.84,30.01,75.15,33.77c40.58,5.81,41.5,1.66,53.3,41.58
						c2.67,10.72-4.8,17.87-9.15,26.13c-10.44,12.08-14,25.6-8.49,41c1.37,9.87,4.4,17.19,16.44,10.9
						c6.05-3.16,12.15-6.23,18.27-9.27c19.58-9.72,38.62-19.61,55.42,5.39c3.27,4.87,11.89,6.22,17.08,10.8
						c2.72,2.14,5.37,4.38,8.09,6.53c1.83,1.39,3.45,3.04,4.8,4.9C523.23,4403.34,522.71,4405.79,521,4407.32z"/>
					<path id="Path_12424" class="st0" d="M138.15,3972.58c-0.94-9.57,1.46-18.52,4.77-27.38c1.77-4.74,5.42-11.44,3.59-14.38
						c-6.88-11.06-7.25-19.39,4.45-27.08c2.63-1.73,2.72-6.33,0.92-9.5c-1.81-3.19-5.42-5.02-8.67-3.37
						c-18.53,9.44-23.78-4.97-30.09-16.75c-1.96-3.67-2.47-8.1-6.44-10.54c4.39-6.73,4.9-14.28,5.73-22.07
						c1.93-17.99,4.57-19.37,23.34-15.37c2.52,0.54,5.03,1.1,7.55,1.66c22.79,12.21,22.85,17.29,0.62,42.37
						c17.82-10.14,38.48,5.56,56.57-7.92c4.45-3.31,10.65,3.6,14.36,8.36c6.28,8.06,13.06,15.49,23.12,20.66
						c2.54-8.02,4.13-16.74,13.96-18.9c29.49-2.56,35.01,1.84,38.33,30.49c-8.35,10.13-27.62,9.47-27.11,28.85
						c0.26,9.97,5.26,8.67,11.47,7.58c5.86-1.97,10.31-6.43,15.85-8.68c7.23-2.93,15.89-11.79,21.5,0.95
						c4.49,10.2-0.61,18.56-10.3,23.29c-8.48,4.14-18.38,4.58-26.63,9.5c-20.11,5.54-41.05,3.55-55.21-10.31
						c-17.99-17.6-33.11-7.03-40.71,4.48C167.48,3976.15,153.74,3973.86,138.15,3972.58z"/>
					<path id="Path_12425" class="st0" d="M1804.88,4132.24c1.55,0.37,3.12,0.61,4.71,0.72c10.93,15.18,12,32,11.62,50.32
						c-0.46,23.98,2.48,47.91,8.73,71.07c4.22,15.67,2.38,28.13-9.06,39.3c-6.33,3.59-1.73,11.24-5.8,15.66l0.14-0.21
						c-6.66,12.35-21.79,3.07-29.92,11.73c-12.46-3.21-20.72-15.11-34.13-16.42c-3.77-0.85-7.29-2.54-10.3-4.97
						c-1.68-2.15-2.92-4.61-3.63-7.24c-0.08-23.85,2.36-47.39,8.86-70.39c4.57-16.17,14.43-26.44,32.12-27.37
						c8.59-8.64,2.05-22.25,10.19-31.04c9.7,4.21,17.28,4.82,16-9.48C1803.75,4146.69,1797.42,4139.32,1804.88,4132.24z"/>
					<path id="Path_12426" class="st0" d="M521,4407.32v-5.16c15.52-24.96,35.74-34.37,60.37-25.84
						c20.35,7.05,42.05,7.17,62.31,14.54c17.5,6.37,21.27-8.99,27.43-19.8c6.78,0.11,10.19,3.65,10.52,10.32
						c10.99,13.89,9.22,30.52,10.02,46.59c-0.27,3.4-0.07,7.44-3.57,9.07c-15.36,7.18-31.75,11.88-44.44,24.63
						c-5.33,5.36-14.77,3.14-22.21,0.54c-27.47-9.6-53.45-22.34-76.86-39.62C536.95,4416.98,529.56,4411.33,521,4407.32z"/>
					<path id="Path_12427" class="st0" d="M1561.16,4350.31c4.68-1.54,9.82-6.72,14.23-2.43c17.4,16.92,38.2,9.22,56.7,6.18
						c16.22-2.66,32.13-3.37,48.27-3.74c27.84-0.65,29.9-2.67,30.95-31.22c4.26-1.45,6.56,1.05,8.56,4.2
						c2.48,5.19,3.47,11.05,6.98,15.79c23.17,17.91,22.04,28.59-4.63,40.12c-8.65,3.73-17.74,6.37-25.81,11.5
						c-8.61,5.48-16.26,4.83-21.83-4.59c-7.82-13.26-17.68-20.07-34.1-14.36c-16.17,5.63-17.92,18.22-18.69,32.16
						c-0.08,1.34-2.29,2.41-3.72,3.39c-16.97-0.19-32.19,7.6-48.31,11.24c-15.38,3.47-29.73,3.69-44.5-0.81
						c-4.37,4.42-11.7-0.06-15.77,5.26l0.11-0.08c-8.78,2.2-20.27,7.99-22.37-6.18c-1.52-10.26,8.9-13.11,17.99-14.26
						c13.58-1.71,27.51-1.39,14.21-22.48c-6.86-10.87,5.95-14.74,14.44-14.07C1547.27,4366.99,1554.56,4359.85,1561.16,4350.31
						L1561.16,4350.31z"/>
					<path id="Path_12428" class="st0" d="M1561.16,4350.31c-1.87,23.03-1.85,22.88-24.6,21.02c-4.77-0.39-10.42-1.94-14.25,4.35
						c1.8,7.85,14.15,6.24,14.97,15.25c0.15,1.65,0.84,3.26,1.88,7.07c-11.6,4.02-19.78,17.2-35.86,10.28
						c-5-2.15-11,1.33-11.93,6.99c-1.26,7.72,5.61,6.82,10.48,7.34c2.56,0.27,5.16,0.22,7.75,0.31c-22.18,9.41-44.43,4.69-66.66,0.3
						c-11.73,0.46-22.49,7.33-37.09,5.67c8.81-12.37,14.37-25.56,32.17-18.75c4.64,1.77,8.53,0.18,11.66-2.92
						c5.24-5.18,17.31-6.16,15.42-15.02c-2.11-9.91-13.04-5.43-19.96-5.37c-11.37,0.11-21.96-2.25-32.63-5.55
						c-4.63-1.44-8.79-3.79-14.62-2.18c-21.22,5.88-25.08,1.9-19.93-18.96c0.55-1.62,1.23-3.2,2.06-4.7l0,0
						c10.1-2.01,15.16,5.31,21.32,12.34c6.69-3.18,5.11-12.32,11.57-15.36c7.32-3.45,13.1,1.66,19.6,2.22
						c14.95,1.26,30.92,1.21,44.77-1.07C1505.44,4348.93,1533.27,4352.02,1561.16,4350.31z"/>
					<path id="Path_12429" class="st0" d="M997.03,4432.92c10.81-7.94,21.59,2.37,32.32,0.06c5.8-1.25,16.2,3.81,15.99-6.17
						c-0.17-8.04-10.74,1-16.01-5.5c10.06-4.84,18.67-11.61,29.86-2.03c4.74,4.06,10.32,2.15,12.74-3.36
						c2.5-5.69-1.39-7.2-6.56-6.98c-6.01,0.24-5.11-3.56-2.96-6.59c3.43-4.87,7.54-9.27,14.22-17.31
						c-0.52,20.49,14.29,29.51,16.71,44.48c0.61,3.78,7.29,3.75,11.54,3.47c23.89-1.52,48.09,3.84,71.75-3.65
						c8.03-2.54,15.75-2.25,17.1,8.98c-50.01,0.09-100.04,0.68-150.05,0.11c-34.61-0.4-68.45,4.29-101.87,12.46
						c-7.48,1.89-15.17,2.85-22.88,2.85c-8.68-0.02-22.18-13.61-23.77,8.06c-0.04,0.58-4.99,1.79-7.09,1.06
						c-20.2-7.04-41.16-1.83-61.62-4.13c-25.98-14.86-52.55-27.12-83.84-24.72c-11.46,0.88-19.04-6.53-22.32-17.48
						c-3.18-10.58-3.12-20.38,8.78-25.98c17.8,16.27,40.66,11.95,61.71,14.81c8.05,1.1,14.8-2.56,20.29-8.69
						c5.47-6.11,10.35-15.13,20.61-7.02c8.5,6.72,15.39,15.36,10.35,26.31c-11.79,25.64,6.43,16.72,17.73,16.12
						c38.41-3.51,77.07,2.63,115.34-3.89C983.03,4426.82,990.55,4427.47,997.03,4432.92z"/>
					<path id="Path_12430" class="st0" d="M1618.07,4407.31c0.66-2.46,2.64-6.22,1.72-7.16c-3.97-4.07-11.89-5.79-0.02-11.44
						c6.82-3.24-4.8-9.76-2.62-15.71c6.48-2.06,13.07-3.75,19.37-6.21c23.7-9.27,30.32-7.01,43.24,15.49
						c1.24,2.16,2.13,4.55,4.52,9.75c15.45-18.63,44.21-12.24,57.54-36.02c-7.54-4.85-20.14-3.18-20.19-15.92
						c15.6-16.09,33.96-24.36,56.77-20.1c2.29,1.17,4.54,2.47,6.72,3.83c2.07,3.15,3.06,6.88,2.83,10.64
						c-3.84,15.38-10.15,30.71-1.42,46.52c-0.33,2.32-1.5,4.45-3.28,5.97c-24.85-4.93-46.48,9.26-70.11,12.1
						c-11.07,1.33-21.65,4.78-32.62,0.52c-10.2-3.95-20-2.23-30.08,1.01C1639.96,4403.98,1629.65,4408.9,1618.07,4407.31z"/>
					<path id="Path_12431" class="st0" d="M251.99,3879.37c-16.79,2.03,3.52,18.27-10.96,21.93c-10.8-6.78-24.43-12.82-31.35-28.03
						c-3.88-8.51-10.22-12.63-15.56,0.19c-3.24,7.8-9.32,4.65-15.26,3.22c-10.58-2.52-20.58-11.82-31.99,2.19
						c-5.06,6.22-11.03-6.05-18.91-8.48c37.6-23.95,32.11-28.25,15.33-42.59c5.07-1.84,10.15-3.67,15.22-5.51
						c11.25-3.43,23.06-5.76,32.93,2.01c10.79,8.5,8.85-5.79,14.08-6.65l10.24-0.01c7.51,5.4,16.97-0.52,24.5,4.09
						c3.29,3.51,1.01,6.47-0.79,9.24c-15.21,23.44-15.21,23.4,7.44,38.09C250.55,3871.46,253.9,3874.17,251.99,3879.37z"/>
					<path id="Path_12432" class="st0" d="M319.3,4391.76c2.38-0.78,6.34-0.97,6.89-2.44c5.48-14.44,13.06-14.94,24.8-6.05
						c7.98,6.04,17.67,3.59,26.69,0.08c8.09-3.14,13.17-0.6,13.87,8.6c-3.38,0.31-8.53-0.68-9.87,1.14
						c-13.12,17.76-33.92,18.41-52.33,23.36c-17.44,4.69-34.71,8.93-49.68,19.54c-1.95,1.38-5.32,3.98-5.96,3.47
						c-15.63-12.58-29.12,0.61-43.4,3.32c-9.97,1.9-20.59-1.33-26.55-6.83c-9.82-9.06-18.75-12.33-31.2-8.57
						c-3.3,1-6.39-1.76-8.55-4.62c12.82-0.85,25.04-3.82,36.27-10.28c7.9-2.09,16.34-10.79,23.61-4.8
						c18.86,15.56,32.8,5.28,50.64-3.01C287.88,4398.46,304.97,4398.6,319.3,4391.76z"/>
					<path id="Path_12433" class="st0" d="M65.54,4169.19c3.14-0.86,7.36-3.83,9.33-0.64c6.47,10.49,12.49,11.13,22.78,3.81
						c7.84-5.58,17.85-4.84,16.08,9.21c-1.6,12.71,16.55,15.76,12.7,29.43c-7.71,4.58-13.6-6.36-21.33-3.02
						c-3.28,3.49-2.9,7.58-1.17,11.74c2.44,5.86,0.5,8.72-5.22,11.83c-22.39,12.18-22.22,12.48-23.16,40.33
						c-5.32,4.93-14.73,0.11-20.24,6c-14.49-17.79-13.74-36.95-5.07-56.83C60.62,4205.33,64.18,4187.58,65.54,4169.19z"/>
					<path id="Path_12434" class="st0" d="M733.12,4391.6c-12.73,6.35-9.53,15.55-5.89,26.15c3.36,9.81,10.07,10.36,18.08,10.2
						c0.86-0.02,1.73,0.08,2.57,0.01c31.37-2.97,58.85,4,78.58,30.76c-22.81-3.27-45.88-4.37-68.54-9.22
						c-12.62-2.55-24.5-7.93-34.74-15.73c-9.18-6.97-18.88-15.68-31.53-5.79c-8.36-14.45-10.87-30.16-10.02-46.59
						c7.39-5.66,4.25-13.83,5.03-21.06C703.32,4369,730.72,4361.73,733.12,4391.6z"/>
					<path id="Path_12435" class="st0" d="M1328.71,3873.85c-1.65,0.33-3.27,0.76-4.94,0.98c-13.73,1.8-10.54,27.56-32.06,20.83
						c-13.62-4.26-26.84,7.88-41,9.66c-9.12-5.2-19.08-7.73-28.75-3.33c-17.12,7.8-28.59,0.67-38.58-12.37
						c14.24-6.43,29.8-7.41,44.85-9.42c11.28-1.51,22.13-0.92,29.14-12.11c2.42-3.87,7.48-5.15,11.55-4.13
						C1288.6,3868.91,1309.52,3866.23,1328.71,3873.85z"/>
					<path id="Path_12436" class="st0" d="M1690.79,3874.53c-27.23-2.29-54.6,3.05-81.97-3.65c-14.61-3.58-25.15-9.65-32.32-22.36
						c30.27-6.61,60.45-8.34,90.83-0.12c7.61,2.06,13.67,11.92,23.24,5.17c5.53,5.29,5.47,11.45,2.84,18.04
						C1692.55,3872.59,1691.68,3873.56,1690.79,3874.53z"/>
					<path id="Path_12437" class="st0" d="M1721.19,3915.3c-2.34,0.93-5.28,1.26-6.94,2.89c-4.33,4.27-3.41,15.01-13.6,11.83
						c-6.43-2-3.94-11.12-9.48-14.42c-0.12-13.69-0.25-27.38-0.38-41.07l-0.34-0.4c8.15-7.37,13.9-17.83,26.03-20.03
						c1.22,0.27,2.46,0.42,3.71,0.46c3.04,0.48,4.84,2.38,5.89,5.13c7.01,6.8,14.03,13.6,21.04,20.39
						c0.27,6.15,0.26,11.87-6.31,15.59c-5.99,3.39-11.32,7.87-14.69,14.18C1726.03,3913.07,1724.36,3914.87,1721.19,3915.3z"/>
					<path id="Path_12438" class="st0" d="M50.23,4221.05c1.69,18.94,3.38,37.89,5.08,56.83l0.05,15.51
						c1.38,5.18,0.94,10.39,0.31,15.62l-1.66,0.53c-23.26-2.85-24.51-3.94-24.82-25.57c-0.17-11.82-0.37-23.73,0.81-35.45
						C31.27,4235.82,33.35,4222.71,50.23,4221.05z"/>
					<path id="Path_12439" class="st0" d="M96.77,3889.75c3.59,0.66,5.63-11.46,10.07-1.48c1.66,3.75,0.04,9.1,2,12.51
						c4.01,6.94,15.6,9.38,12.67,20.48c-2.5,9.49-13,10.58-18.89,16.71c-3.88,4.04-6.91,10.05-15.32,9.86
						c-0.47-4.07-0.96-8.23-1.45-12.39C85.65,3919.55,89.4,3903.85,96.77,3889.75z"/>
					<path id="Path_12440" class="st0" d="M1783.77,4381.2c-16.8-15.44-6.56-30.96-0.14-46.47c3.43-3.42,3.04-6.89,0.14-10.39
						l0.02-0.02c-1.32-1.25-1.71-2.44-1.18-3.57c0.52-1.1,1.02-1.66,1.5-1.66c5.49-2.68,4.86-18.5,17-7.39
						c4.35,3.98,9.35-1.61,14.1-2.58c0.35,10.93-0.08,21.66-7.3,30.79c-6.7,11.06-16.87,20.41-15.61,35.29
						C1792.64,4379.1,1789.25,4382.91,1783.77,4381.2z"/>
					<path id="Path_12441" class="st0" d="M102.13,4401.84c16.97,2.08,27.63-4.19,31.97-21.68c2.2-8.85,7.45-16.93,12.64-25.46
						c-2.67,20.87,8.82,38.4,12,57.78c-10.07-6.72-21.58-4.47-32.63-5.32C117.93,4406.51,108.61,4410.44,102.13,4401.84z"/>
					<path id="Path_12442" class="st0" d="M1783.77,4381.2c5.06-3.11,6.56-8.66,4.53-13.01c-7.81-16.73,1.99-22.07,15.3-25.85
						c1.55-0.43,2.89-1.61,4.32-2.44c5.82,24.48-3.66,43.31-22.52,61.56c-0.95-6.46-1.55-10.48-2.14-14.51
						C1783.43,4385.03,1783.6,4383.12,1783.77,4381.2z"/>
					<path id="Path_12443" class="st0" d="M1084.92,3874.33c-20.2,11.02-44.42,1.01-65.06,12.88c-6.24,3.59-16.46-1.17-22.68-7.95
						c11.84,0.55,22.74-2.62,34.2-5.63C1048.59,3869.1,1067.45,3857.45,1084.92,3874.33z"/>
					<path id="Path_12444" class="st0" d="M1824.19,4123.39c2.67-9.02,4.85-18.18,6.56-27.43c2.11-11.35,2.6-24.45,15.47-30.76
						c7.71,6.84,6.55,14.46,2.02,22.44c-6.19,10.92-10.22,22.69-13.39,34.79c-1.44,1.87-2.89,3.75-4.36,5.62l-0.05,0.04
						c-1.31,1.13-3.28,0.99-4.41-0.32c-0.13-0.15-0.25-0.31-0.35-0.49C1824.97,4126.08,1824.46,4124.76,1824.19,4123.39z"/>
					<path id="Path_12445" class="st0" d="M1716.48,3854.1c-7.37,8.37-12.47,19.69-26.03,20.03c0.05-6.85,0.09-13.7,0.13-20.55
						C1703.23,3839.99,1704.27,3840,1716.48,3854.1z"/>
					<path id="Path_12446" class="st0" d="M205.53,3817.67c-0.65,6.62,1.4,13.81-3.34,19.58c-4.74,5.75-13.26,6.48-13.32-0.68
						c-0.14-16.58-10.32-14.04-20.19-14.08c-3.38-0.01-6.77-0.12-10.15-0.18c2.43-3.97,6.42-4.71,10.56-5.13
						C181.24,3817.33,193.39,3817.5,205.53,3817.67z"/>
					<path id="Path_12447" class="st0" d="M997.22,3879.29c-10.43-1.24-21.9,4.1-31.13-4.84
						C976.55,3875.49,987.96,3870.51,997.22,3879.29z"/>
					<path id="Path_12448" class="st0" d="M1509.48,4423c3.68-6.46,9.89-5.37,15.77-5.26
						C1521.15,4422.95,1515.34,4423.05,1509.48,4423z"/>
					<path id="Path_12449" class="st0" d="M748.64,3832.63c-5.75,0.08-11.68,0.77-15.63-4.89
						C738.7,3827.83,744.78,3826.68,748.64,3832.63z"/>
					<path id="Path_12450" class="st0" d="M1815.07,4309.32c-0.41-6.08-1.52-12.43,5.8-15.66
						C1820.26,4299.36,1820.02,4305.22,1815.07,4309.32z"/>
					<path id="Path_12451" class="st0" d="M1576.58,3848.56c-4.3-0.13-8.08-1.37-10.75-5
						C1570.35,3843.19,1574.31,3844.06,1576.58,3848.56z"/>
					<path id="Path_12452" class="st0" d="M1830.49,4128.04c1.45-1.87,2.91-3.75,4.36-5.62
						C1834.98,4125.53,1833.63,4127.48,1830.49,4128.04z"/>
					<path id="Path_12453" class="st0" d="M1726.08,3859.69c-1.96-1.71-3.92-3.42-5.89-5.13
						C1723.49,3854.74,1725.42,3856.48,1726.08,3859.69z"/>
					<path id="Path_12454" class="st0" d="M1825.68,4127.28c1.62-0.05,3.24,0.22,4.76,0.81
						C1828.12,4132.21,1826.53,4131.95,1825.68,4127.28z"/>
					<path id="Path_12455" class="st0" d="M251.99,3879.37c-3.32-2.45-6.64-4.9-9.94-7.37c-6.13-4.58-19.14,4.66-20.19-8.8
						c-0.88-11.37-1.7-23.7,9.09-32.22c1.94-1.53,3.85-3.1,7.67-6.2c-7.74-4.46-17.96,0.71-22.84-7.13
						c1.77-0.21,3.54-0.43,5.31-0.65c82.9,2.73,165.7,7.1,248.22,15.8c4.08,11.14,1.29,22.98,4.15,34.66
						c2.98,12.17-7.42,22.34-16.48,29.71c-6.99,5.7-28.08-7.59-27.72-19.41c0.37-11.93-4.09-14.29-13.38-15.31
						c-1.7-0.33-3.23-1.26-4.31-2.61c-8.25-10.05-17.25-12.19-28.34-4.1c-2.09,1.52-6.52-2.09-9.27,2.03
						c-0.39,8,6.86,5.15,10.87,6.74c4.75,1.89,8.22,6.72,5.52,9.6c-14.39,15.33-0.49,28.47,2.24,42.39
						c0.98,4.96,2.83,9.77,4.28,14.64c-16.79,2.56-22.39-10.14-29.16-21.27c-4.68-7.67-11.01-13.37-19.6-16.38
						c-17.01-5.28-26.8,6.83-37.93,15.74c-8.47,4.87-16.55,7.7-21.65-4.29c-6.62-10.2-4.03-27.22-22.37-28.88
						C260.61,3875.57,256.58,3877.81,251.99,3879.37z"/>
					<path id="Path_12456" class="st0" d="M733.12,4391.61c-7.74-10.93-13.89-23.25-31.73-19.3c-3.85,0.85-9.77-7.74-14.74-11.98
						c-2.03-6.81-13.47-11.13-6.89-19.9c5.38-7.17,13.18-10.64,22.61-5.69c9.9,5.19,14.24,0.52,15.34-9.31
						c0.38-3.38,1.36-6.7,1.74-10.08c2.68-24.18,1.85-25.2-23.02-27.81c7-14,27.34-20.99,21.28-40.71
						c5.73-1.66,12.91-1.69,16.95-5.26c15.85-14,33.36-5.33,49.59-3.75c17.54,1.72,27.58,32,14.73,44.18
						c-10.77,10.22-2.84,13.42,3.94,15.69c9.87,3.3,20.54,4.18,36.6,7.17c-16.81,8.6-25.03,17.06-25.65,32.21
						c-0.34,8.53-13.07,4.53-19.07,10.04c-8.4,7.74-10.36,14.09-2.6,20.63c3.68,3.1,9.34,4.1,11-0.4
						c3.75-10.07,9.55-11.97,19.64-10.61c4.74,0.64,6.27-7.2,8.7-11.6c4.55,1.08,12.48,6.75,13.08,0.7
						c1.67-16.77,19.32-20.68,24.25-34.96c4.36-12.61,17.75-6.61,27.24-6.35c9.3,0.26,12.72,7.52,12.89,16.15
						c0.17,8.57,0.07,17.13,0.23,25.7c0.08,5.1-0.34,10.89,5.86,12.85c4.75,1.49,7.84-1.72,10.42-5.48c1.42-2.08,3.17-4.31,5.31-5.4
						c2.01-1.02,6.61-1.38,6.87-0.74c3.93,9.72,12.56,21.5,9.84,29.19c-7.52,21.37-7.53,23.99,15.21,25.26
						c25.36,1.42,29.09,4.77,34.3,30.88c-6.86,0.06-13.72,0.13-20.59,0.2c-31.25,5.48-62.77,0.91-94.12,2.58
						c-10.03,0.53-20.45-2.73-30.08,2.6c-14.78,12.12-19.68-4.77-30.15-8.49c22.13-18.43,22.15-20.02,0.73-40.01
						c-8.15,24.27-26.05,26.86-46.91,20.27c-7.1-2.25-12.96-0.72-19.77,0.57C742.33,4413.28,737.73,4408.75,733.12,4391.61z"/>
					<path id="Path_12457" class="st0" d="M1380.01,4355.44c-44.16,3.71-86.97-5.46-130.17-12.43
						c-36.29-5.85-72.72-10.25-110.04-7.96c-15.66,0.97-32.51-7.97-47.77-14.76c-6.04-2.68-10.23-4-16.39-2.23
						c-15.86,4.55-30.53-2.34-45.22-6.42c-6.41-1.78-12.1-7.82-11.64-15.55c0.51-8.45,9.94-13.45,14.45-11.59
						c12.59,5.18,19.06-14.73,31.83-5.8c3.24,2.25,4.45-3.52,4.44-6.78c-0.02-6.07,0.22-12.54-7.74-14.25
						c-19.74-4.21-36.37,2.6-51.45,14.78c-7.1,5.73-11.45,15.67-24.41,15.04c-1.65-8.05,6.38-10.97,8.97-16.32
						c1.59-3.29,2.31-6.65,0.4-9.75c-2.44-3.97-5.67-1.82-8.96-0.72c-19.6,6.56-27.98-0.82-28.52-24.98
						c6.84,2.73,6.91,15.18,13.49,13.84c11.92-2.42,24.15-1.01,35.66-4.17c6.16-1.7,5.07-7.73,3.54-13.1
						c-2.35-8.25-10.82-13.39-11.6-25.71c20.12,11.19,37.54,28.72,63.71,16.92c-7.26-8.13-19.17-3.91-24.89-11.56
						c-3.27-4.36-11.88-7.68-5.64-14.38c4.54-4.87,9.26-0.54,12.27,4.22c1.88,2.99,4.16,5.82,7.9,5.78
						c20.15-0.19,28.02,13.29,32.82,29.7c2.75,9.38,4.9,17.38,17,8.92c4.68-3.27,9.98,0.52,14.85,1.55c10.93,2.3,13.24,9.37,9.07,19
						c-1.68,3.89-4.69,7.26-6.1,11.22c-2.28,6.4,2.5,9.91,7.29,11.41c6.78,2.14,3.59-13.44,11.98-8.14
						c3.73,2.36,4.41,9.11,7.6,12.91c3.3,3.93,8.03,3.29,10.81-1.06c4.26-6.63,16.21-2.86,17.27-13.13
						c0.14-1.34-2.25-4.17-2.32-4.13c-11.2,5.92-15.79-19.42-28.68-6.08c-1.61,1.67-5.25-0.08-5.69-2.84
						c-0.35-2.27,0.08-5.94,1.56-6.98c5.6-3.96,11.55-7.4,17.79-10.26c5.85-2.65,19.27,0.37,7.65-12.95
						c-2.05-2.34,1.58-6.37,4.88-7.83c3.88-1.72,6.43,0.56,8.43,3.66c0.46,0.72,1.2,1.48,1.23,2.25
						c1.06,24.56,19.61,29.03,38.25,33.4c5.14,1.21,6.22,5.29,6.91,9.67v0.01c4.63,3.77,9.54,7.25,13.83,11.38
						c5.32,5.13,9.93,9.74,16.85,1.86c6.11-6.96,4.55-12.23-2.25-17.13c-2.76-1.99-5.76-3.76-4.68-8.42
						c26.51,0.87,21.78,22.07,23.76,38.62c10.19-4.04,14.92-9.03,10.83-19.98c-2.88-8.06-2.47-16.93,1.16-24.69
						c23.47,7.35,26.67,9.81,21.66,29.72c-4.36,17.36,4.81,25.03,15.24,34.77c12.85-22.72,12.85-22.72-1.69-40.08
						c3.06-7.93,12.26-6.82,17.4-12.36c3.03,11.7,5.79,22.36,8.55,33.01c13.8-1.17,18.08-25.74,36.6-14.82
						c10.22,6.02,9.02,15.24,6.78,26.32c-2.16-3.3-3.54-5.31-4.8-7.39c-3.59-5.86-8.59-5.15-13.21-2.11
						c-4.9,3.23-6.56,8.16-2.55,13.18C1376.66,4330.26,1381.51,4341.77,1380.01,4355.44L1380.01,4355.44z"/>
					<path id="Path_12458" class="st0" d="M138.15,3972.58c7.74-3.18,13.68-14.98,24.23-4.81c1.85,1.78,5.35,1.41,5.16-1.81
						c-1.52-24.91,27.34-16.93,34.9-32.28c1.28-2.6,7.28-1.11,8.76,1.93c12.96,26.54,38.58,23.3,61.44,26.61
						c11.92,9.35,21.24,25.25,40.79,12.25c5.43-3.61,13.42,0.46,16.19,8.48c-12.3,18.9-15.11,40.18-15.55,62.06
						c-1.33,1.13-1.79,2.27-1.38,3.43s0.83,1.76,1.26,1.76c0.03,3.44,0.06,6.88,0.08,10.32c2.64,19.82-16.7,23.8-26.75,28.84
						c-10.91,5.47-11.32-12.32-17.06-21.91c-2.89,5.96-8.82,8.8-14.38,6.08c-26.86-13.21-34.87,8.5-43.1,24.82
						c-4.51,8.95-8.28,15.88-17.72,19.05c-12.89,0.36-16.33,10.54-19.54,19.94c-2.94,8.62-4.19,17.81-6.18,26.74
						c19.16,21.77,38.83,43.21,46.3,72.45c7.67,16.63,18.65,30.32,36.87,35.44c22.36,6.3,33.91,20.47,36.05,43.33
						c0.46,4.88,3.14,9.55,4.79,14.32c-1.74,11.71-8.41,8.91-15.38,5.23c-1.48-11.29-4.29-20.2-19.34-16.19
						c-4.4,1.17-10.08-3.2-14.88-2.61c-10.72,1.29-22.97,1.37-22.96,17.73c0.02,17.57-16.02,17.54-25.92,23.98
						c-2.04-1.87-4.37-3.4-4.16-3.91c7.67-18.93-3.55-27.81-18.05-35.68c-7.58-4.12-14.24-10.2-17.56-18.35
						c-1.68-4.13-4-10.19,2.97-13.08c3.17-1.31,10.61,1.35,7.1-6.02c-1.87-3.94-10.14-3.87-11.29-1.24
						c-3.64,8.38-25.64,4.19-15.66,22.49c0.45,0.82-12.81,9.12-20.39,14.44c-10.4-13.47-3.23-28.44-4.61-43.23
						c-14.51,1.9-12.85,12.23-13.15,21.13c-0.5,14.79-8.46,4.83-13.61,4.23c-0.18-6.86,0.66-13.88-2.5-20.32
						c-7.89-16,4.17-25.94,11.8-36.69c4.4-6.2,11.92-6.29,18.64-2.41c2.17,1.25,3.56,3.8,5.67,5.19
						c23.57,15.5,36.96,9.72,38.35-18.25c0.73-14.71,7.77-28.31,5.71-43.23c-0.8-5.82,1.89-14.23-4.1-16.63
						c-20.48-8.19-18.38-32.24-32.88-44.34c-3.97-3.31-2.67-7.38,0.18-11.35c9.72-13.56,19.7-26.77,23.29-43.92
						c1.8-8.6,16.46-8.5,22.52-0.14c2.23,3.08,0.47,8.31,4.34,11.16c16.39-15.92,16.39-15.92,4.53-30.56
						c-2.98-3.67-2.2-8.13-2.54-12.35c9.56-1.87,22.1,5.7,26.96-10.74c2.19-7.44,9.59-6.5,13.7,0.18
						c7.06,11.49,12.68,4.75,17.35-1.48c7.22-9.64-2.08-12.21-7.93-13.41c-12.4-2.54-9.07-14.82-15.65-24.44
						c-6.63,26.26-23.23,40.37-44.66,49.79c-5.44-3.49-8.29-10.53-16.32-10.62c-6.14-0.07-10.43-4.64-5.97-9.78
						c10.79-12.48,4.79-21.18-4.52-30.07C139.18,3981.07,138.41,3976.85,138.15,3972.58z"/>
					<path id="Path_12459" class="st0" d="M215.61,4236.53c-0.75-0.4-1.85-0.6-2.2-1.23c-13.67-24.38-34.46-44.35-44.1-71.23
						c4.29-0.74,9.54-2.16,9.27-6.85c-1.21-21.18,12.97-19.67,26.81-19.09v-0.01c-7.22,10.49-1.45,19.46,3.05,28.59
						c8.72,2.14,14.26-5.76,21.93-6.31c0.69,1.24,2.25,3.21,1.93,3.59c-9.45,11.31-5.65,20.44,4.4,28.68
						c1.33,1.09,2.41,2.57,3.85,3.43c17.68,10.46,29.56,24.63,29.1,46.93c11.57-27.92-6.91-45.16-23.7-64.24
						c15.07,1.36,15.07,1.36,38.13,30.02c9.59-13.26-4.82-24.47-1.64-38.39c12.21,7.01,29.45,6.87,25.34,31.28
						c23.37-28.69,49.68-18.56,74.75-16.08c3.08,10.64-5.32,10.94-9.63,13.67c-7.76,4.92-7.31,10.54-3.77,17.59
						c3.54,7.07,7.16,8.4,13.75,2.81c5.35-4.52,11.09-1.15,10.64,4.85c-1.01,13.23,3.33,19.12,17.05,19
						c9.37-0.08,6.02,8.46,7.1,13.78c8.65,9.94,10.42,21.83,9.8,34.43c-1.36,5.73-4.18,10.2-10.22,11.92
						c-8.19,3.74-11.77,1.26-8.62-7.38c2.26-6.2,4.02-12.51-2.69-15.67c-7.28-3.43-12.24-17.25-16.07-13.81
						c-9.09,8.15-21.02-3.62-28.19,6.85c-1.69,2.48-7.47,4.28-7.8-0.26c-1.29-17.47-11.9-10.52-19.97-7.89
						c-7.65,2.5-13.17,0.54-18.65-4.48c-2.44-2.23-6.94-5.92-8.24-5.15c-18.45,10.99-12.14-4.97-13.67-12.25
						c-0.52-2.46-0.88-4.95-1.58-8.88c-1.95,3.2-3.34,5.15-4.39,7.27c-4.47,9.08-10.88,16.45-21.72,14.39
						c-11.35-2.15-13.11-12.38-13.55-21.96c-0.52-11.42-5.11-19.02-16.68-22.56C234.09,4236.27,233.76,4236.67,215.61,4236.53z"/>
					<path id="Path_12460" class="st0" d="M671.1,4371.06c7.37,10.34,1.61,17.16-5.92,24.08c-6.4,5.88-12.75,8.18-20.88,3.81
						c-22.96-12.33-50.69-7.93-73.5-20.84c-9.86,9.41-31.31-4.27-35.03,17.83c-1.47,8.76-11.44,0.24-14.78,6.22l-5.13-0.3
						c-1.73-1.67-3.5-3.3-5.31-4.9c-6.91-3.06-11.5-10.39-20-10.58c-3.44,0.01-6.71-1.46-8.99-4.03
						c-13.02-14.33-17.86-15.34-34.62-6.75c-9.75,4.99-19.18,10.61-28.87,15.72c-16.3,8.57-19.74,6.49-21.25-12.63
						c-0.2-2.54,0-5.11,0.01-7.67c10.82-9.34,23.22-15.42,30.26-30.53c12.14-26.06,35.8-10.36,55.07-9.6
						c2.3,0.77,4.44,1.96,6.3,3.52c4.48,4.43,5.99,9.99,6.47,16.11c2.09,26.25,3.81,28.21,27.72,19.58
						c13.24-4.77,29.48-1.69,39.77-14.42c11.86-2.85,15.59,8.08,22.91,13.11c4.4,3.03,9.88,9.09,15.82,3.65
						c4.73-4.32,1.57-9.8-2.01-13.55c-7.13-7.46-4.3-15.33,0.92-20.69c9.42-9.66,11.3-29.6,32.67-24.3
						c11.64,2.89,16.07,9.45,9.47,19.9c-4.05,6.43-10.37,11.39-14.83,17.63c-3.12,4.36-4.05,10.09,2.28,12.86
						c5.49,2.41,10.33-0.07,12.32-5.61c1.07-2.98-0.94-7.32,0.49-9.91c5.23-9.5,17.88-9.41,22.13,0.26
						C667.66,4355.98,669,4363.69,671.1,4371.06z"/>
					<path id="Path_12461" class="st0" d="M195.04,4117.4c3.24-3.87,9.75-8.31,9.19-11.52c-3.77-21.48,16.2-27.52,25.07-40.55
						c6.1-8.96,14.4-9.33,21.24-1.1c10,12.05,14.74,3.07,20.09-4.68c7.54,8.05,9.43,18.46,15.52,28.97
						c2.86-9.36,2.67-20.35,16.87-16.26c7.47,2.16,7.8-7.24,11.04-11.72c1.24,2.09,3.69,4.27,3.54,6.26
						c-1.65,21.7-1.77,21.78,18.65,21.67c3.68-0.02,7.04-0.21,7.78,4.24c0.61,3.65-0.46,7.67-4.69,7.42
						c-12.39-0.72-11.5,6.52-6.1,12.21c10.33,10.87,3.96,20.56,0.29,30.88c-6.09,1.07-3.23-10.2-10.42-7.6
						c-0.67,1.4-2.24,3.13-1.87,4.18c2.25,6.44,5.25,12.63,7.27,19.12c0.62,1.99-0.42,5.18-1.81,6.92
						c-1.68,1.94-4.62,2.16-6.56,0.48c-0.09-0.08-0.18-0.16-0.27-0.25c-12.21-13.46-33.79-10.01-45.13-27.06
						c-6.76-10.17-22.81-10.09-34.4-14.86C226.63,4118.49,210.25,4119.36,195.04,4117.4z"/>
					<path id="Path_12462" class="st0" d="M329.63,3982.96c-7.72-4.45-15.08-6.23-23.84-1.25c-4.44,2.53-7.01,11.35-14.66,6.29
						c-6.26-4.14-13.26-7.57-14.35-16.55c-0.38-3.2-2.7-6.16-4.14-9.22c1.51-12.74,11.47-9.93,19.46-10.45
						c12.88-0.83,18.08-7.39,15.57-21.4c-14.08,0.72-21.4,15.96-35.07,16.26c-0.97-30.18-0.27-31.04,26.82-33.82
						c4.8-0.49,7.66-3.37,9.37-7.65c17.9-20.75,22.19-22.34,41.5-15.42c28.83,23.73,29.11,40.75-1.1,58.54
						c-11.57,6.81-6.38,16.29-9.05,24.47C337.99,3977.32,334.25,3980.94,329.63,3982.96z"/>
					<path id="Path_12463" class="st0" d="M562.43,4355.68c2.38,6.15,7.77,14.64-4.39,14.7c-15.08,0.08-28.65,3.6-42.07,9.89
						c-3.61,1.7-8.45,1.02-12.73,1.01c-17.65-0.04-20.49-2.58-15.85-19.43c2.76-10,2.34-18.4-2.57-27.04
						c5.56-8.51,8.52-18.58,15.71-26.1c6.2,8.37,15.59,12.35,23.89,17.96C537.6,4335.59,549.81,4345.93,562.43,4355.68z"/>
					<path id="Path_12464" class="st0" d="M500.52,4308.71c-0.4,11.61,1.69,24.72-15.71,26.1l0.04-0.12
						c-3.92-3.36-9.78-2.68-13.49-6.42c-16.85-16.96-31.26-11.49-44.59,4.74c-4.35,5.29-9,11.09-16.82,8.32
						c-5.91-2.09-6.63-6.94-3.03-12.15c-0.02-9.92,11.32-15.23,10.35-25.53c1.78-3.44,3.57-6.88,5.35-10.32
						c11.44-25.42,15.12-26.69,39.63-13.41c9.02,4.89,18.12,9.64,27.51,13.79C493.35,4298.72,496.93,4303.72,500.52,4308.71z"/>
					<path id="Path_12465" class="st0" d="M371.18,3905.21c6.16,11.02,14.06,20.32,25.68,25.94c-0.01,9.43-0.02,18.87-0.04,28.3
						c-0.02,7.21-1.37,13.94-9.09,16.77c-7.93,2.91-12.94-2.29-17.6-7.47c-3.39-3.78-6.42-7.87-9.61-11.82
						C362.56,3939.39,369.83,3922.91,371.18,3905.21z"/>
					<path id="Path_12466" class="st0" d="M489.76,4293.71c-11.22,5.83-19.56-2.12-27.74-6.91c-22.15-12.98-21.89-13.43-39.4,6.53
						c0.65-12.32-7.3-23.47-4.93-36.02c5.98-5.54,11.01-14.06,20.18-3.29c9.45,11.09,19.47,20.56,36.57,19.21
						C487.3,4272.22,484.67,4286.73,489.76,4293.71z"/>
					<path id="Path_12467" class="st0" d="M371.18,3905.21c0.75,18.13,0.72,36.1-10.66,51.73c-6.8,5.27-13.59,10.54-20.38,15.82
						c-1.16-1.23-3.12-2.32-3.38-3.72c-1.51-8.25-2.63-16.56-4.14-26.6c12.51,0.61,25.14,3.4,30.66-11.54
						c5.18-13.97,2.2-25.1-8.79-34.71c-1.86-1.62-2.83-4.27-4.2-6.44C360.99,3889.84,366.29,3897.25,371.18,3905.21z"/>
					<path id="Path_12468" class="st0" d="M780.3,3935.51c4.55,11.85,8.19,23.21,21.86,13.61c3.24-2.28,6.47,0.01,7.63,3.8
						c1.1,3.58-0.35,6.81-2.66,9.37c-4.58,5.09-10.29,5.7-16.21,2.75c-6.34-3.18-16.01-2.46-16.1-13.32
						C774.78,3947.47,774.4,3943.22,780.3,3935.51z"/>
					<path id="Path_12469" class="st0" d="M205.39,4138.14c1.14-2.25,4.63-4.89,5.1-3.73
						C212.91,4140.31,207.16,4136.78,205.39,4138.14L205.39,4138.14z"/>
					<path id="Path_12470" class="st0" d="M313.97,4050.21c-3.48-1.81-3.42-3.54,0.11-5.19
						C314.04,4046.74,314.01,4048.48,313.97,4050.21z"/>
					<path id="Path_12471" class="st0" d="M1716.47,4324.33l-5.16-5.23c-0.02-1.64-0.11-3.29-0.25-4.93
						c2.03-13.83-3.12-26.93-5.98-41.1c10.67-4.03,15.62,9.68,26.94,4c0-12.04,2.22-25.98-0.53-38.86
						c-3.9-18.17,0.53-32.9,10.28-47.52c4.26-6.39,6.94-13.81,10.55-20.66c2.37-4.49,4.71-10.01,11.07-8.7
						c5.76,1.19,6.84,7.14,8.82,11.73c2.95,6.85-1.8,15.9,6.02,21.41c-19.12,6.91-27.14,23.2-28.95,40.9
						c-2.15,20.98-8.93,41.52-6.87,62.94c4.09,11.44,8.69,23.13-4.82,31.66C1728.87,4335.49,1721.47,4333.81,1716.47,4324.33z"/>
					<path id="Path_12472" class="st0" d="M1804.88,4132.24c-0.94,9.16,6.42,15.69,7.76,23.89c1.55,9.47-3.44,16.91-12.5,19.55
						c-10.09,2.95-10.25-5.76-11.74-12.24c0.07-9.29,0.75-18.53-2.75-27.58c-3.34-8.61-0.87-15.48,8.89-17.01
						C1805.05,4117.2,1804.03,4125.73,1804.88,4132.24z"/>
					<path id="Path_12473" class="st0" d="M1721.19,3915.3c1.64-1.81,3.29-3.63,4.93-5.45c1.65,0.12,3.32,0.15,4.95,0.4
						c3.94,0.57,9.16,0.33,8.38,6.24c-0.48,3.58-4.46,4.16-7.86,4.31C1727.03,3920.99,1723.67,3918.99,1721.19,3915.3z"/>
					<path id="Path_12474" class="st0" d="M169.2,4034.6c-3.24-12.86,15.21-4.35,13.55-12.77c-2.39-12.11,6.14-8.72,11.7-11.37
						c7.2-3.44,12.86-10.14,9.58-18.9c-4.16-11.09,0.17-14.16,10.32-13.72c9.58,0.41,15.83,5.48,11.59,14.52
						c-4.23,9.02-1.32,10.97,6.32,11.06c7.58,0.1,13.45,2.15,16.51,9.65c2.72,6.69,5.75,13.42-5.57,14.67
						c-2.48,0.1-4.77,1.33-6.23,3.33c-12.11,15.69-12.2,15.63-20.83-2.68c-0.72-1.54-1.25-3.17-1.84-4.69
						c-12.68,0.94-1.22,17.94-12.87,19.33c-8.64,1.04-16.42-0.91-21.97-8.35L169.2,4034.6z"/>
					<path id="Path_12475" class="st0" d="M55.67,4309c-3.63-5.14-3.54-10.34-0.31-15.62c11.1-2.92,22.7-8.86,30.95,5.18
						c0.34,8.24,4.58,15.38,1.73,24.91c-4.06,13.57,4.09,24.66,17.89,28.85c3.64,1.1,8.79-1.76,10.41,3.96
						c1.41,5-1.88,7.9-5.86,10.12c-4.6,2.56-9.87,5.53-13.97,0.56c-7.04-8.53-18.4-17.75-18.53-26.81
						C77.75,4322.57,64.47,4318.22,55.67,4309z"/>
					<path id="Path_12476" class="st0" d="M277.94,4334.85c5.63-0.27,11.72,0.81,15.38-5.23c4.8,1.78,8.59,5.55,10.39,10.33
						c11.47,13.43-1.32,34.95,15.54,46.58c0.01,1.74,0.04,3.47,0.05,5.22c-4.1,10.2-17,11.25-21.77,21.05
						c-1.68,3.45-6.73,3.61-7.91-0.24c-3.5-11.42-9.83-6.59-15.45-3.08c-4.28,2.69-7.71,6.71-11.66,9.97
						c-9.8,8.1-21.39,10.12-29.81,0.54c-9.88-11.23-20.86-8.57-32.43-7.55c8.53-10,16.47-17.18,32.35-11.74
						c13.23,4.62,27.82,3.21,39.92-3.85c4.38-3.43,3.04-6.88,0.05-10.35c-6.74,0.35-13.44-1.24-19.29-4.59
						c-12.07-6.72-11.84-9.06-0.22-17.21C263.93,4357.11,275.7,4349.82,277.94,4334.85z"/>
					<path id="Path_12477" class="st0" d="M272.6,4386.52c3.05,1.23,6.53,2.75,6.79,6.16c0.36,4.64-3.94,3.72-6.84,4.19
						C272.57,4393.42,272.58,4389.97,272.6,4386.52z"/>
					<path id="Path_12478" class="st0" d="M319.25,4386.54c-7.57,3.43-15.25,6.81-15.45-6.61c-0.2-13.33-0.08-26.65-0.09-39.98
						c1.71,0.02,3.41,0.05,5.11,0.07c1.77,1.9,3.52,1.79,5.23-0.08c8.67-3.68,17.32-7.39,26.01-11.03
						c7.11-2.98,14.56-5.36,19.13-12.33c3.06-4.65,4.79-12.98,12.77-8.38c8.18,4.73,12.33,13.6,8.02,22.17
						c-5.27,10.46-14.58,18.69-16.4,31.28c-0.49,3.38-5.57,4.09-8.87,2.95C333.76,4357.36,325.7,4370.57,319.25,4386.54z"/>
					<path id="Path_12479" class="st0" d="M406.92,4329.19c2.73,12.79,8.83,11.83,13.97,2.25c3.98-7.43,5.57-14.79,15.79-17.54
						c23.97-6.45,23.75-7.1,40.9,13.86c2.11,2.57,4.83,4.65,7.27,6.94c-10.14-1.1-20.77,7.93-30.78-3.12
						c-3.6-3.97-10.13-1.72-15.16,3.8c-13.91,15.27-14.36,14.86-7.28,34.73c-12.74-5.65-23.79-2.49-34.8,0.92
						C387.24,4353.96,392.7,4340.51,406.92,4329.19z"/>
					<path id="Path_12480" class="st0" d="M314.05,4339.95c-1.68,3.56-3.43,3.53-5.23,0.08
						C310.56,4340,312.31,4339.97,314.05,4339.95z"/>
					<path id="Path_12481" class="st0" d="M510.57,4396.97c1.77,1.63,3.55,3.26,5.32,4.9
						C514.11,4400.24,512.33,4398.6,510.57,4396.97z"/>
					<path id="Path_12482" class="st0" d="M308.79,3905.17c4.46,9.69-3.61,10.48-8.71,10c-14.38-1.36-21.96,2.29-20.58,18.64
						c0.27,3.27-6.84,7.13-6.89,12.82c-19.88,1.19-22.77-1.68-16.58-16.51c0.62-1.51,2.33-2.58,2.89-4.09
						c7.54-20.58,7.52-20.6,29.6-21.08C295.21,3910.48,301.98,3909.72,308.79,3905.17z"/>
					<path id="Path_12483" class="st0" d="M1716.47,4324.33c22.75,7.32,24.88,5.72,22.33-17.29c-0.43-3.79,0.66-6.53,3.6-8.73
						l-0.02,0.08c3.36,3.57,6.77,3.35,10.2,0.11c14.22,1.16,23.54,9.84,31.52,20.57c-0.11,1.74-0.21,3.49-0.32,5.23
						c-23.3-4.92-41.52,10.14-62.14,15.78C1715.53,4336.29,1716.5,4330.14,1716.47,4324.33z"/>
					<path id="Path_12484" class="st0" d="M1752.58,4298.51c-3.46,5.22-6.86,5.36-10.2-0.11
						C1745.78,4298.44,1749.18,4298.47,1752.58,4298.51z"/>
					<path id="Path_12485" class="st0" d="M1497.79,4396.8c-3.24,6.43-10.42,11.03-18.23,13.18c-4.84,1.33-6.3-4.37-5.85-8.74
						c0.66-6.4,15.08-14.84,21.2-12.41C1497.33,4389.79,1498.24,4392.33,1497.79,4396.8z"/>
					<path id="Path_12486" class="st0" d="M852.24,4438.31c6.67-7.94,15.84-5.01,24.04-5.08c33.39-0.29,66.77-0.11,100.16-0.11
						c-6.75,7.74-15.88,4.92-24.1,4.99C918.97,4438.42,885.6,4438.27,852.24,4438.31z"/>
					<path id="Path_12487" class="st0" d="M1783.77,4324.34c5.22,3.53,4.88,6.99-0.14,10.39L1783.77,4324.34z"/>
					<path id="Path_12488" class="st0" d="M1073.19,4246.96c-1,1.1-1.86,2.91-3.04,3.16c-1.99,0.43-2.88-1.08-2.09-3.01
						c0.33-0.78,0.89-1.43,1.61-1.87C1071.57,4244.16,1072.79,4244.81,1073.19,4246.96z"/>
					<path id="Path_12489" class="st0" d="M1224.8,4277.86c-1.13,2.26-4.64,4.91-5.13,3.73
						C1217.23,4275.67,1223.01,4279.2,1224.8,4277.86L1224.8,4277.86z"/>
				</g>
				<ellipse id="Ellipse_8" class="st0" cx="843" cy="196.5" rx="4" ry="4.5"/>
			</g>
		</g>
	</g>
</g>
</svg>
