<svg xmlns="http://www.w3.org/2000/svg" width="161.134" height="28.443" viewBox="0 0 161.134 28.443">
  <g id="Group_51" data-name="Group 51" transform="translate(0)">
    <g id="Group_50" data-name="Group 50">
      <path id="Path_12109" data-name="Path 12109" d="M1251.273,228.564l.919-.559q.2-1.017-.787-1.018-1.413,0-1.413,2.168a9.87,9.87,0,0,0,.23,1.971,5,5,0,0,1,2.5,4.286,4.9,4.9,0,0,1-1.807,4.057,7.617,7.617,0,0,1-4.894,1.445,14.179,14.179,0,0,1-2.66-.263q-1.445.92-1.445,1.38t2.1.459h3.35q7.456,0,7.456,5.354a5.433,5.433,0,0,1-2.251,4.582q-2.25,1.691-7.012,1.691-8.112,0-8.113-3.514,0-1.906,2.529-2.628l1.97.887a6.75,6.75,0,0,0-.263,1.807q0,2.824,4.2,2.824a6.9,6.9,0,0,0,3.941-.952,2.806,2.806,0,0,0,1.38-2.365,1.98,1.98,0,0,0-.837-1.888,7.69,7.69,0,0,0-3.334-.477h-3.186a6.331,6.331,0,0,1-3.81-.887,2.668,2.668,0,0,1-1.15-2.184,3.035,3.035,0,0,1,.822-2.167,14.918,14.918,0,0,1,2.923-2.152,4.749,4.749,0,0,1-3.81-4.992,4.966,4.966,0,0,1,1.774-3.974,8.033,8.033,0,0,1,5.32-1.511,7.542,7.542,0,0,1,3.646.821,7.513,7.513,0,0,1-.2-1.609,3.278,3.278,0,0,1,.985-2.66,3.355,3.355,0,0,1,2.2-.821,2.879,2.879,0,0,1,1.955.64,2.2,2.2,0,0,1,.739,1.757,2.138,2.138,0,0,1-.592,1.658,2.039,2.039,0,0,1-1.428.542,2.106,2.106,0,0,1-1.379-.443A1.628,1.628,0,0,1,1251.273,228.564Zm-6.964,6.142v1.773a7.89,7.89,0,0,0,.378,2.989,1.22,1.22,0,0,0,1.15.787,1.158,1.158,0,0,0,1.117-.772,9.277,9.277,0,0,0,.345-3.17v-1.609a10.83,10.83,0,0,0-.328-3.367,1.132,1.132,0,0,0-1.1-.8,1.253,1.253,0,0,0-1.166.837A9.16,9.16,0,0,0,1244.309,234.706Z" transform="translate(-1237.445 -225.674)" fill="#374b5c"/>
      <path id="Path_12110" data-name="Path 12110" d="M1276.643,232.638a2.582,2.582,0,0,0-2.135,1.576,7.3,7.3,0,0,0-.919,3.744v8.8h2.332v.591h-10.247v-.591h1.806V232.309h-1.806v-.592h7.915v3.153a4.457,4.457,0,0,1,1.642-2.578,4.506,4.506,0,0,1,2.76-.9,3.617,3.617,0,0,1,2.512.871,3.139,3.139,0,0,1,.969,2.463,3.687,3.687,0,0,1-.722,2.447,2.741,2.741,0,0,1-2.217.854,2.521,2.521,0,0,1-2.2-.985,3.035,3.035,0,0,1-.182-2.726h1.182Q1278.154,232.638,1276.643,232.638Z" transform="translate(-1244.587 -227.12)" fill="#374b5c"/>
      <path id="Path_12111" data-name="Path 12111" d="M1293.952,245.5a8.365,8.365,0,0,1-2.118-6.076,7.467,7.467,0,0,1,2.382-5.961,8.9,8.9,0,0,1,6.059-2.07q7.455,0,7.16,7.489h-9.262v1.281a11.253,11.253,0,0,0,.82,4.861,2.929,2.929,0,0,0,2.859,1.642q3.808,0,4.992-4.073l.591.1a6.787,6.787,0,0,1-2.251,3.678,7.642,7.642,0,0,1-4.876,1.314Q1296.07,247.68,1293.952,245.5Zm4.254-7.275h3.383v-1.609a13.883,13.883,0,0,0-.312-3.63,1.23,1.23,0,0,0-1.248-.969,1.458,1.458,0,0,0-1.379,1.035,9.984,9.984,0,0,0-.444,3.564Z" transform="translate(-1251.205 -227.12)" fill="#374b5c"/>
      <path id="Path_12112" data-name="Path 12112" d="M1321.036,245.5a8.364,8.364,0,0,1-2.119-6.076,7.467,7.467,0,0,1,2.382-5.961,8.9,8.9,0,0,1,6.06-2.07q7.455,0,7.16,7.489h-9.261v1.281a11.234,11.234,0,0,0,.821,4.861,2.925,2.925,0,0,0,2.856,1.642q3.81,0,4.992-4.073l.592.1a6.788,6.788,0,0,1-2.249,3.678,7.647,7.647,0,0,1-4.878,1.314Q1323.155,247.68,1321.036,245.5Zm4.254-7.275h3.382v-1.609a13.87,13.87,0,0,0-.312-3.63,1.23,1.23,0,0,0-1.248-.969,1.457,1.457,0,0,0-1.379,1.035,10,10,0,0,0-.443,3.564Z" transform="translate(-1258.058 -227.12)" fill="#374b5c"/>
      <path id="Path_12113" data-name="Path 12113" d="M1345.87,231.718h7.916v3.022a5.452,5.452,0,0,1,1.609-2.43,4.987,4.987,0,0,1,3.285-.92q5.09,0,5.091,5.485v9.887h1.84v.591h-9.3v-.591h1.347V236.086a7.556,7.556,0,0,0-.264-2.546.956.956,0,0,0-.952-.574q-1.052,0-1.856,1.38a6.535,6.535,0,0,0-.8,3.35v9.066h1.411v.591h-9.328v-.591h1.806V232.309h-1.806Z" transform="translate(-1264.876 -227.12)" fill="#374b5c"/>
      <path id="Path_12114" data-name="Path 12114" d="M1379.6,245.5a8.362,8.362,0,0,1-2.118-6.076,7.467,7.467,0,0,1,2.381-5.961,8.9,8.9,0,0,1,6.06-2.07q7.454,0,7.16,7.489h-9.263v1.281a11.251,11.251,0,0,0,.821,4.861,2.928,2.928,0,0,0,2.858,1.642q3.809,0,4.992-4.073l.591.1a6.79,6.79,0,0,1-2.251,3.678,7.642,7.642,0,0,1-4.877,1.314Q1381.721,247.68,1379.6,245.5Zm4.254-7.275h3.383v-1.609a13.874,13.874,0,0,0-.312-3.63,1.23,1.23,0,0,0-1.248-.969,1.458,1.458,0,0,0-1.379,1.035,9.995,9.995,0,0,0-.443,3.564Z" transform="translate(-1272.875 -227.12)" fill="#374b5c"/>
      <path id="Path_12115" data-name="Path 12115" d="M1415.318,232.638a2.584,2.584,0,0,0-2.135,1.576,7.3,7.3,0,0,0-.919,3.744v8.8h2.331v.591h-10.247v-.591h1.806V232.309h-1.806v-.592h7.915v3.153a4.45,4.45,0,0,1,1.643-2.578,4.5,4.5,0,0,1,2.758-.9,3.617,3.617,0,0,1,2.514.871,3.144,3.144,0,0,1,.969,2.463,3.69,3.69,0,0,1-.723,2.447,2.739,2.739,0,0,1-2.216.854,2.526,2.526,0,0,1-2.2-.985,3.037,3.037,0,0,1-.18-2.726h1.183Q1416.827,232.638,1415.318,232.638Z" transform="translate(-1279.672 -227.12)" fill="#374b5c"/>
      <path id="Path_12116" data-name="Path 12116" d="M1429.6,232.421v-.592h9.525v.592h-1.774l3.58,10.9,3.81-10.9h-2.2v-.592h4.631v.592h-1.643l-6.142,17.7a10.7,10.7,0,0,1-2.431,4.319,4.69,4.69,0,0,1-3.285,1.231,4.782,4.782,0,0,1-3.054-.887,2.769,2.769,0,0,1-1.116-2.266,2.846,2.846,0,0,1,.722-2.1,2.573,2.573,0,0,1,1.905-.722q2.724,0,2.725,2.266a4.4,4.4,0,0,1-.2,1.182h-1.15a1.783,1.783,0,0,0-.066,1.247.847.847,0,0,0,.887.493,3.028,3.028,0,0,0,2.4-1.33,14.317,14.317,0,0,0,2-4.056l.723-2.036h-2.89l-5.616-15.042Z" transform="translate(-1286.035 -227.231)" fill="#374b5c"/>
    </g>
  </g>
</svg>
