<?xml version="1.0" encoding="utf-8"?>
<!-- Generator: Adobe Illustrator 23.0.2, SVG Export Plug-In . SVG Version: 6.00 Build 0)  -->
<svg version="1.1" id="Layer_1" xmlns="http://www.w3.org/2000/svg" xmlns:xlink="http://www.w3.org/1999/xlink" x="0px" y="0px"
	 viewBox="0 0 83 80" style="enable-background:new 0 0 83 80;" xml:space="preserve">
<style type="text/css">
	.st0{opacity:0.1;}
	.st1{fill:#00DBD0;}
</style>
<g id="Group_220" transform="translate(139 18.459)" class="st0">
	<g id="Group_219">
		<path id="Path_36514" class="st1" d="M-105.13,10.64c1.69,1.69,3.88,2.78,6.24,3.11V7.81c-2.49-0.87-3.81-3.59-2.94-6.09
			s3.59-3.81,6.09-2.94c2.49,0.87,3.81,3.59,2.94,6.09c-0.48,1.38-1.56,2.46-2.94,2.94v5.94c6.04-0.86,10.24-6.45,9.38-12.48
			c-0.34-2.38-1.44-4.58-3.14-6.27l-7.81-7.81L-105.13-5C-109.45-0.68-109.45,6.32-105.13,10.64
			C-105.13,10.64-105.13,10.64-105.13,10.64z"/>
		<path id="Path_36515" class="st1" d="M-79.61,25.08c-2.03,0-3.83-1.29-4.49-3.2h-5.94c0.86,6.04,6.45,10.24,12.48,9.38
			c2.37-0.34,4.57-1.44,6.27-3.13l7.82-7.82l-7.82-7.82c-4.31-4.32-11.3-4.33-15.61-0.02c-1.7,1.69-2.8,3.89-3.13,6.26h5.94
			c0.87-2.48,3.6-3.79,6.08-2.92c2.48,0.87,3.79,3.6,2.92,6.08C-75.77,23.81-77.58,25.09-79.61,25.08L-79.61,25.08z"/>
		<path id="Path_36516" class="st1" d="M-83.01,0.47c0,3.68,2.98,6.66,6.66,6.66c3.68,0,6.66-2.98,6.66-6.66v-6.66h-6.66
			C-80.03-6.19-83.01-3.21-83.01,0.47C-83.01,0.47-83.01,0.47-83.01,0.47z"/>
		<path id="Path_36517" class="st1" d="M-61.55,11.22l3.04-3.04l-3.04-3.05c-1.68-1.68-4.41-1.68-6.09,0
			c-1.68,1.68-1.68,4.41,0,6.09C-65.95,12.9-63.23,12.9-61.55,11.22L-61.55,11.22z"/>
		<path id="Path_36518" class="st1" d="M-80.83-7.87c1.68-1.68,1.68-4.41,0-6.09c0,0,0,0,0,0L-83.88-17l-3.05,3.05
			c-1.68,1.68-1.68,4.41,0,6.09S-82.51-6.18-80.83-7.87z"/>
		<path id="Path_36519" class="st1" d="M-114.89,15.53c2.03,0,3.83,1.29,4.49,3.2h5.94c-0.86-6.04-6.45-10.24-12.48-9.38
			c-2.37,0.34-4.57,1.44-6.27,3.13l-7.82,7.82l7.82,7.82c4.31,4.32,11.3,4.33,15.61,0.02c1.7-1.69,2.8-3.89,3.13-6.27h-5.94
			c-0.87,2.48-3.6,3.79-6.08,2.92s-3.79-3.6-2.92-6.08C-118.73,16.8-116.92,15.52-114.89,15.53L-114.89,15.53z"/>
		<path id="Path_36520" class="st1" d="M-118.15,7.13c3.68,0,6.66-2.98,6.66-6.66s-2.98-6.66-6.66-6.66h-6.66v6.66
			C-124.81,4.14-121.83,7.13-118.15,7.13C-118.15,7.13-118.15,7.13-118.15,7.13z"/>
		<path id="Path_36521" class="st1" d="M-126.86,11.22c1.68-1.68,1.68-4.41,0-6.09c-1.68-1.68-4.41-1.68-6.09,0l0,0L-136,8.18
			l3.04,3.04C-131.27,12.9-128.55,12.9-126.86,11.22C-126.87,11.22-126.87,11.22-126.86,11.22z"/>
		<path id="Path_36522" class="st1" d="M-107.58-7.87c1.68-1.68,1.68-4.41,0-6.09c0,0,0,0,0,0l-3.04-3.05l-3.04,3.05
			c-1.68,1.68-1.68,4.41,0,6.09S-109.26-6.18-107.58-7.87L-107.58-7.87z"/>
		<path id="Path_36523" class="st1" d="M-89.49,29.97c-1.69-1.69-3.88-2.78-6.24-3.11v5.94c2.49,0.87,3.81,3.59,2.94,6.09
			s-3.59,3.81-6.09,2.94s-3.81-3.59-2.94-6.09c0.48-1.38,1.56-2.46,2.94-2.94v-5.94c-6.04,0.86-10.24,6.45-9.38,12.48
			c0.34,2.37,1.44,4.57,3.13,6.27l7.82,7.82l7.82-7.82C-85.54,41.36-85.84,34.5-89.49,29.97z"/>
		<path id="Path_36524" class="st1" d="M-76.35,33.48c-3.68,0-6.66,2.98-6.66,6.66s2.98,6.66,6.66,6.66h6.66v-6.66
			C-69.69,36.46-72.67,33.48-76.35,33.48z"/>
		<path id="Path_36525" class="st1" d="M-67.64,29.39c-1.68,1.68-1.68,4.41,0,6.09c1.68,1.68,4.41,1.68,6.09,0l0,0l3.04-3.05
			l-3.05-3.04C-63.23,27.71-65.95,27.71-67.64,29.39C-67.63,29.39-67.63,29.39-67.64,29.39z"/>
		<path id="Path_36526" class="st1" d="M-86.92,48.47c-1.68,1.68-1.68,4.41,0,6.09c0,0,0,0,0,0l3.05,3.04l3.05-3.04
			c1.68-1.68,1.68-4.41,0-6.09C-82.51,46.79-85.24,46.79-86.92,48.47L-86.92,48.47L-86.92,48.47z"/>
		<path id="Path_36527" class="st1" d="M-111.49,40.14c0-3.68-2.98-6.66-6.66-6.66s-6.66,2.98-6.66,6.66v6.66h6.66
			C-114.47,46.8-111.49,43.82-111.49,40.14C-111.49,40.14-111.49,40.14-111.49,40.14z"/>
		<path id="Path_36528" class="st1" d="M-132.96,29.39l-3.04,3.04l3.04,3.05c1.68,1.68,4.41,1.68,6.09,0c1.68-1.68,1.68-4.41,0-6.09
			C-128.55,27.71-131.27,27.71-132.96,29.39L-132.96,29.39z"/>
		<path id="Path_36529" class="st1" d="M-113.67,48.47c-1.68,1.68-1.68,4.41,0,6.09c0,0,0,0,0,0l3.04,3.04l3.04-3.04
			c1.68-1.68,1.68-4.41,0-6.09S-111.98,46.79-113.67,48.47L-113.67,48.47z"/>
	</g>
</g>
</svg>
